<svg width="22" height="22" viewBox="0 0 22 22" fill="none" xmlns="http://www.w3.org/2000/svg">
<path d="M2.84311 2.78157C2.97448 2.74861 3.11105 2.74185 3.24502 2.76167C3.379 2.78149 3.50776 2.82751 3.62395 2.8971C3.74014 2.96669 3.84149 3.05848 3.9222 3.16723C4.00292 3.27599 4.06142 3.39958 4.09436 3.53095L5.41986 8.83707C5.44384 8.94102 5.48829 9.03914 5.5506 9.12572C5.61292 9.2123 5.69187 9.28559 5.78283 9.34131C5.87379 9.39704 5.97494 9.43408 6.08038 9.45028C6.18581 9.46648 6.29342 9.46151 6.39692 9.43566C6.50041 9.40981 6.59771 9.3636 6.68315 9.29972C6.76858 9.23585 6.84044 9.15559 6.89451 9.06364C6.94858 8.97169 6.98379 8.86988 6.99808 8.76417C7.01237 8.65846 7.00546 8.55096 6.97774 8.44795L5.53124 2.65645C5.49613 2.52434 5.48764 2.38657 5.50626 2.25115C5.52488 2.11574 5.57023 1.98537 5.63968 1.86764C5.70913 1.7499 5.80129 1.64715 5.91081 1.56536C6.02033 1.48356 6.14502 1.42436 6.27762 1.39118C6.41023 1.35801 6.54811 1.35153 6.68324 1.37212C6.81837 1.39271 6.94806 1.43996 7.06477 1.51112C7.18148 1.58228 7.28287 1.67594 7.36306 1.78664C7.44325 1.89734 7.50063 2.02287 7.53187 2.15595L9.08837 8.38882C9.1396 8.59596 9.27102 8.77425 9.45372 8.88449C9.63641 8.99473 9.85542 9.02787 10.0626 8.97664C10.2697 8.9254 10.448 8.79398 10.5582 8.61128C10.6685 8.42859 10.7016 8.20958 10.6504 8.00245L9.66311 4.0012C9.59674 3.73572 9.63855 3.45474 9.77935 3.22009C9.92014 2.98543 10.1484 2.81632 10.4139 2.74995C10.6793 2.68358 10.9603 2.72539 11.195 2.86618C11.4296 3.00697 11.5987 3.23522 11.6651 3.5007L12.7582 7.93232C12.7851 8.03561 12.8321 8.13258 12.8965 8.21771C12.9609 8.30284 13.0414 8.37445 13.1335 8.42846C13.2255 8.48247 13.3273 8.51781 13.433 8.53248C13.5388 8.54715 13.6463 8.54085 13.7496 8.51395C13.8529 8.48704 13.9499 8.44006 14.035 8.37568C14.1201 8.3113 14.1917 8.23078 14.2457 8.13872C14.2998 8.04666 14.3351 7.94487 14.3498 7.83915C14.3644 7.73343 14.3581 7.62586 14.3312 7.52257L13.7496 5.39682C13.6812 5.13189 13.7209 4.85064 13.8599 4.61496C13.9989 4.37927 14.2258 4.20845 14.4907 4.14007C14.7557 4.0717 15.0369 4.11137 15.2726 4.25035C15.5083 4.38934 15.6791 4.61626 15.7475 4.8812L16.7732 8.66795L16.776 8.67757C16.7907 8.71607 16.8026 8.75549 16.8117 8.79582C17.0111 9.76382 17.1624 10.7689 17.1871 11.6696C17.2325 13.3512 16.9726 15.5319 16.7609 16.9922C16.6658 17.6237 16.3917 18.2147 15.9711 18.6953C15.5505 19.1758 15.001 19.5258 14.3876 19.7037L11.9346 20.4297C9.96837 21.0113 7.90449 20.2702 6.56936 18.8196C5.41436 17.5614 3.90874 16.1658 2.45674 15.4769C2.00765 15.2687 1.65606 14.8954 1.47499 14.4347C1.37247 14.1751 1.35057 13.8906 1.41213 13.6183C1.47369 13.3461 1.61587 13.0987 1.82011 12.9084C2.26553 12.4768 2.82357 12.1795 3.43024 12.0504C3.63924 12.0083 3.85695 11.989 4.08336 11.9927L2.09374 4.03145C2.06078 3.90009 2.05402 3.76352 2.07384 3.62954C2.09366 3.49556 2.13968 3.3668 2.20926 3.25061C2.27885 3.13442 2.37064 3.03307 2.4794 2.95236C2.58816 2.87165 2.71175 2.81452 2.84311 2.78157ZM18.4659 1.38182C18.5553 1.36901 18.6464 1.37395 18.7339 1.39636C18.8215 1.41877 18.9037 1.45822 18.976 1.51245C20.0741 2.40909 20.8803 3.6125 21.2917 4.9692C21.7032 6.3259 21.7012 7.77439 21.286 9.12995C21.2463 9.27416 21.1598 9.40108 21.0401 9.4907C20.9203 9.58033 20.7742 9.62755 20.6246 9.62495L20.4321 9.59745C20.2571 9.54639 20.1095 9.4279 20.0218 9.26802C19.9341 9.10815 19.9136 8.91999 19.9646 8.74495C20.3017 7.65779 20.3092 6.49515 19.9862 5.40373C19.6632 4.31231 19.0241 3.34103 18.1496 2.61245C18.0408 2.5308 17.9587 2.41871 17.9136 2.29036C17.8685 2.16201 17.8625 2.02318 17.8964 1.89142C17.9302 1.75966 18.0024 1.64092 18.1038 1.5502C18.2052 1.45949 18.3312 1.40089 18.4659 1.38182ZM17.5859 3.5612C17.5131 3.5088 17.4305 3.47146 17.3431 3.45137C17.2557 3.43128 17.1652 3.42885 17.0768 3.44422C16.9884 3.45959 16.904 3.49245 16.8285 3.54087C16.753 3.58929 16.6879 3.6523 16.6371 3.7262C16.5833 3.79732 16.5442 3.87841 16.5219 3.96477C16.4997 4.05113 16.4949 4.14105 16.5077 4.2293C16.5205 4.31755 16.5506 4.40239 16.5965 4.47889C16.6423 4.55539 16.7028 4.62203 16.7746 4.67495C17.1743 5.0222 17.4833 5.46161 17.675 5.95514C17.8666 6.44868 17.9352 6.98148 17.8746 7.50745C17.8671 7.59779 17.8775 7.68873 17.9053 7.77502C17.933 7.86132 17.9776 7.94128 18.0364 8.01029C18.0952 8.0793 18.167 8.136 18.2478 8.17713C18.3286 8.21826 18.4167 8.24301 18.5071 8.24995C18.6803 8.2505 18.8473 8.18567 18.9748 8.0684C19.1023 7.95114 19.1808 7.79009 19.1946 7.61745C19.2802 6.86122 19.1782 6.09555 18.8976 5.3881C18.617 4.68065 18.1665 4.05321 17.5859 3.5612Z" fill="#9747FF"/>
</svg>
