<svg width="132" height="105" viewBox="0 0 132 105" fill="none" xmlns="http://www.w3.org/2000/svg">
<circle cx="52.5" cy="52.5" r="52.5" fill="#804BF2"/>
<path d="M47.9173 29.167C45.4862 29.167 43.1546 30.1328 41.4355 31.8518C39.7164 33.5709 38.7507 35.9025 38.7507 38.3337C38.7507 40.7648 39.7164 43.0964 41.4355 44.8155C43.1546 46.5346 45.4862 47.5003 47.9173 47.5003C50.3485 47.5003 52.68 46.5346 54.3991 44.8155C56.1182 43.0964 57.084 40.7648 57.084 38.3337C57.084 35.9025 56.1182 33.5709 54.3991 31.8518C52.68 30.1328 50.3485 29.167 47.9173 29.167ZM63.959 47.5003C63.8189 47.4977 63.6825 47.5445 63.5735 47.6325C63.4645 47.7205 63.3901 47.8441 63.3632 47.9816L62.9277 51.0066C62.2402 51.3045 61.5757 51.6712 60.9798 52.0837L58.1382 50.9378C57.8861 50.9378 57.5882 50.9378 57.4277 51.2357L55.1361 55.2003C54.9986 55.4524 55.0444 55.7503 55.2736 55.9337L57.7027 57.8128C57.6115 58.574 57.6115 59.3433 57.7027 60.1045L55.2736 61.9837C55.1706 62.072 55.1008 62.1928 55.0758 62.3261C55.0508 62.4595 55.0721 62.5974 55.1361 62.717L57.4277 66.6816C57.5652 66.9795 57.8632 66.9795 58.1382 66.9795L60.9798 65.8337C61.5757 66.2462 62.2173 66.6357 62.9277 66.9107L63.3632 69.9357C63.409 70.2107 63.6382 70.417 63.959 70.417H68.5423C68.7944 70.417 69.0465 70.2107 69.0923 69.9357L69.5277 66.9107C70.2152 66.6128 70.834 66.2462 71.4527 65.8337L74.2715 66.9795C74.5694 66.9795 74.8673 66.9795 75.0277 66.6816L77.3194 62.717C77.3834 62.5974 77.4046 62.4595 77.3796 62.3261C77.3546 62.1928 77.2849 62.072 77.1819 61.9837L74.7298 60.1045C74.7757 59.7149 74.8215 59.3482 74.8215 58.9587C74.8215 58.5691 74.7986 58.2024 74.7298 57.8128L77.159 55.9337C77.262 55.8453 77.3317 55.7245 77.3567 55.5912C77.3817 55.4578 77.3605 55.32 77.2965 55.2003L75.0048 51.2357C74.8673 50.9378 74.5694 50.9378 74.2715 50.9378L71.4527 52.0837C70.834 51.6712 70.2152 51.2816 69.5048 51.0066L69.0694 47.9816C69.055 47.851 68.9935 47.7302 68.8965 47.6417C68.7995 47.5531 68.6736 47.5029 68.5423 47.5003H63.959ZM47.9173 52.0837C37.7882 52.0837 29.584 56.1857 29.584 61.2503V65.8337H51.7673C50.7445 63.6859 50.2122 61.3375 50.209 58.9587C50.2136 56.6562 50.7139 54.3818 51.6757 52.2899C50.4611 52.1524 49.2007 52.0837 47.9173 52.0837ZM66.2507 55.5212C68.1527 55.5212 69.6882 57.0566 69.6882 58.9587C69.6882 60.8607 68.1527 62.3962 66.2507 62.3962C64.3257 62.3962 62.8132 60.8607 62.8132 58.9587C62.8132 57.0566 64.3486 55.5212 66.2507 55.5212Z" fill="white"/>
<rect x="89.5" y="32.5" width="40" height="40" rx="20" fill="#F2AE30"/>
<rect x="89.5" y="32.5" width="40" height="40" rx="20" stroke="white" stroke-width="5"/>
<path d="M105.426 59.38C104.266 59.38 103.272 59.1933 102.446 58.82C101.619 58.4333 100.946 57.9133 100.426 57.26C99.919 56.6067 99.539 55.8533 99.2857 55C99.0457 54.1333 98.9257 53.22 98.9257 52.26V51.12C98.9257 49.7867 99.159 48.58 99.6257 47.5C100.092 46.42 100.806 45.56 101.766 44.92C102.726 44.28 103.946 43.96 105.426 43.96C106.906 43.96 108.119 44.28 109.066 44.92C110.026 45.56 110.739 46.42 111.206 47.5C111.672 48.58 111.906 49.7867 111.906 51.12V52.26C111.906 53.22 111.779 54.1333 111.526 55C111.286 55.8533 110.906 56.6067 110.386 57.26C109.879 57.9133 109.212 58.4333 108.386 58.82C107.572 59.1933 106.586 59.38 105.426 59.38ZM105.426 56.36C106.506 56.36 107.306 55.9867 107.826 55.24C108.359 54.48 108.626 53.3067 108.626 51.72C108.626 50.04 108.352 48.8333 107.806 48.1C107.272 47.3533 106.479 46.98 105.426 46.98C104.346 46.98 103.539 47.3533 103.006 48.1C102.472 48.8333 102.206 50.0267 102.206 51.68C102.206 53.28 102.466 54.46 102.986 55.22C103.519 55.98 104.332 56.36 105.426 56.36ZM116.18 59V46.56L117.06 47.24H113.32V44.4H119.44V59H116.18Z" fill="#1E1E1E"/>
</svg>
