<svg width="289" height="259" viewBox="0 0 289 259" fill="none" xmlns="http://www.w3.org/2000/svg">
<rect width="288.523" height="259" rx="6.70985" fill="white"/>
<path d="M220.35 147.159C225.02 147.159 228.849 143.364 228.383 138.718C227.144 126.371 223.198 114.411 216.784 103.707C208.918 90.5784 197.636 79.8311 184.141 72.6117C170.646 65.3923 155.444 61.9716 140.157 62.7145C124.87 63.4575 110.071 68.3362 97.3399 76.8302C84.6084 85.3243 74.4214 97.1151 67.8656 110.945C61.3098 124.775 58.6311 140.125 60.1152 155.357C61.5994 170.59 67.1907 185.134 76.2928 197.438C83.7138 207.47 93.2416 215.706 104.167 221.591C108.277 223.805 113.251 221.727 115.044 217.416V217.416C116.837 213.104 114.761 208.201 110.707 205.884C102.585 201.244 95.486 194.952 89.8864 187.383C82.6047 177.539 78.1317 165.904 76.9444 153.718C75.757 141.531 77.9 129.251 83.1446 118.188C88.3893 107.124 96.5389 97.6912 106.724 90.896C116.909 84.1007 128.748 80.1978 140.978 79.6034C153.207 79.0091 165.369 81.7456 176.165 87.5211C186.961 93.2967 195.987 101.895 202.28 112.398C207.119 120.474 210.202 129.445 211.368 138.726C211.951 143.359 215.681 147.159 220.35 147.159V147.159Z" fill="#804BF2" fill-opacity="0.2"/>
<path d="M144.261 71.0692C144.261 66.4 148.055 62.571 152.701 63.0372C165.048 64.276 177.008 68.2222 187.712 74.6354C200.841 82.5014 211.588 93.7838 218.808 107.279C226.027 120.774 229.448 135.976 228.705 151.263C227.962 166.55 223.083 181.348 214.589 194.08C206.095 206.811 194.305 216.998 180.475 223.554C166.645 230.11 151.295 232.789 136.062 231.304C120.829 229.82 106.285 224.229 93.9811 215.127C83.9493 207.706 75.7134 198.178 69.8284 187.253C67.6141 183.142 69.6925 178.168 74.0038 176.375V176.375C78.3151 174.583 83.2189 176.659 85.5353 180.713C90.176 188.835 96.4675 195.934 104.037 201.533C113.88 208.815 125.516 213.288 137.702 214.475C149.888 215.663 162.168 213.52 173.232 208.275C184.296 203.03 193.728 194.881 200.524 184.696C207.319 174.51 211.222 162.672 211.816 150.442C212.411 138.213 209.674 126.051 203.898 115.255C198.123 104.459 189.525 95.4329 179.022 89.1401C170.945 84.3009 161.975 81.2176 152.693 80.0513C148.06 79.4692 144.261 75.7384 144.261 71.0692V71.0692Z" fill="#804BF2"/>
<circle cx="144.262" cy="147.159" r="58.7111" stroke="#804BF2" stroke-opacity="0.2" stroke-width="3.35492"/>
<path d="M23.2656 26.7988C22.9677 26.4525 22.6134 26.1828 22.2028 25.9896C21.8002 25.7963 21.3895 25.6997 20.9708 25.6997C20.4475 25.6997 19.9684 25.8245 19.5336 26.0741C19.0988 26.3237 18.7566 26.6699 18.507 27.1128C18.2574 27.5476 18.1326 28.0267 18.1326 28.55C18.1326 29.0734 18.2574 29.5565 18.507 29.9994C18.7566 30.4342 19.0988 30.7804 19.5336 31.0381C19.9684 31.2877 20.4475 31.4125 20.9708 31.4125C21.3734 31.4125 21.776 31.3239 22.1786 31.1468C22.5893 30.9696 22.9516 30.724 23.2656 30.41L24.2197 31.4728C23.7769 31.9238 23.2616 32.2821 22.6738 32.5478C22.086 32.8054 21.4902 32.9343 20.8863 32.9343C20.0731 32.9343 19.3283 32.741 18.6519 32.3545C17.9756 31.968 17.4441 31.4447 17.0577 30.7844C16.6712 30.1161 16.4779 29.3794 16.4779 28.5742C16.4779 27.769 16.6752 27.0363 17.0697 26.3761C17.4643 25.7158 17.9997 25.1965 18.6761 24.818C19.3605 24.4396 20.1173 24.2504 20.9467 24.2504C21.5506 24.2504 22.1424 24.3711 22.7221 24.6127C23.3018 24.8543 23.797 25.1884 24.2077 25.6152L23.2656 26.7988ZM31.2283 26.3519V32.8135H29.6461V31.6178C29.2113 32.4552 28.4625 32.8739 27.3997 32.8739C26.675 32.8739 26.1033 32.6524 25.6846 32.2096C25.2659 31.7667 25.0566 31.1629 25.0566 30.3979V26.3519H26.6388V29.939C26.6388 30.3899 26.7596 30.7442 27.0011 31.0018C27.2507 31.2595 27.5929 31.3883 28.0277 31.3883C28.5269 31.3803 28.9215 31.2031 29.2113 30.8569C29.5012 30.5107 29.6461 30.0718 29.6461 29.5404V26.3519H31.2283ZM34.5286 27.5959C34.746 27.1772 35.0398 26.8592 35.4102 26.6418C35.7887 26.4163 36.2275 26.2996 36.7267 26.2915V27.8133C36.0584 27.773 35.523 27.9301 35.1204 28.2843C34.7258 28.6306 34.5286 29.1016 34.5286 29.6974V32.8135H32.9584V26.3519H34.5286V27.5959ZM39.1703 27.5959C39.3877 27.1772 39.6816 26.8592 40.0519 26.6418C40.4304 26.4163 40.8692 26.2996 41.3684 26.2915V27.8133C40.7001 27.773 40.1647 27.9301 39.7621 28.2843C39.3675 28.6306 39.1703 29.1016 39.1703 29.6974V32.8135H37.6002V26.3519H39.1703V27.5959ZM44.9352 26.3036C45.9658 26.3036 46.7388 26.5975 47.2541 27.1853C47.7775 27.773 48.0392 28.5984 48.0392 29.6612C48.0392 29.8705 48.0352 30.0275 48.0271 30.1322H43.2564C43.3611 30.5912 43.5744 30.9535 43.8965 31.2192C44.2266 31.4769 44.6292 31.6057 45.1043 31.6057C45.4344 31.6057 45.7484 31.5453 46.0464 31.4245C46.3523 31.2957 46.618 31.1145 46.8435 30.881L47.6889 31.7627C47.3669 32.117 46.9723 32.3908 46.5053 32.584C46.0464 32.7772 45.5351 32.8739 44.9714 32.8739C44.3112 32.8739 43.7274 32.737 43.2202 32.4632C42.721 32.1895 42.3345 31.807 42.0607 31.3158C41.7869 30.8166 41.6501 30.2449 41.6501 29.6008C41.6501 28.9567 41.7869 28.385 42.0607 27.8858C42.3425 27.3866 42.733 27.0001 43.2322 26.7263C43.7315 26.4445 44.2991 26.3036 44.9352 26.3036ZM46.6019 29.0815C46.5858 28.6064 46.4288 28.228 46.1309 27.9462C45.833 27.6643 45.4384 27.5234 44.9473 27.5234C44.4883 27.5234 44.1018 27.6643 43.7878 27.9462C43.4819 28.2199 43.2926 28.5984 43.2202 29.0815H46.6019ZM53.049 26.2915C53.7897 26.2915 54.3735 26.517 54.8003 26.9679C55.227 27.4107 55.4404 28.0146 55.4404 28.7795V32.8135H53.8582V29.2385C53.8582 28.7876 53.7294 28.4333 53.4717 28.1756C53.214 27.9099 52.8638 27.7771 52.4209 27.7771C51.8976 27.7851 51.4829 27.9623 51.1769 28.3085C50.879 28.6547 50.7301 29.0976 50.7301 29.637V32.8135H49.16V26.3519H50.7301V27.5597C51.1729 26.7303 51.9459 26.3076 53.049 26.2915ZM60.7548 32.4149C60.2394 32.7289 59.7 32.8859 59.1363 32.8859C58.5808 32.8859 58.1258 32.7249 57.7716 32.4028C57.4173 32.0727 57.2401 31.5896 57.2401 30.9535V27.765H56.3343L56.3222 26.6176H57.2401V24.8422H58.7982V26.6176H60.6461V27.765H58.7982V30.6757C58.7982 30.9736 58.8545 31.187 58.9673 31.3158C59.08 31.4366 59.2491 31.497 59.4745 31.497C59.7161 31.497 60.022 31.4084 60.3924 31.2313L60.7548 32.4149ZM69.8391 32.8135L68.3777 30.3134C68.3133 30.3214 68.2126 30.3255 68.0757 30.3255H66.1675V32.8135H64.549V24.3591H68.0757C69.1708 24.3591 70.0162 24.6127 70.6121 25.12C71.2079 25.6272 71.5058 26.3438 71.5058 27.2698C71.5058 27.9301 71.3609 28.4937 71.071 28.9607C70.7892 29.4277 70.3745 29.7779 69.827 30.0114L71.687 32.8135H69.8391ZM66.1675 28.9003H68.0757C68.6877 28.9003 69.1547 28.7674 69.4768 28.5017C69.7988 28.236 69.9599 27.8415 69.9599 27.3181C69.9599 26.8028 69.7988 26.4163 69.4768 26.1587C69.1547 25.901 68.6877 25.7722 68.0757 25.7722H66.1675V28.9003ZM76.8038 32.8135V32.0284C76.5783 32.3102 76.2885 32.5236 75.9342 32.6685C75.5799 32.8135 75.1733 32.8859 74.7143 32.8859C74.2634 32.8859 73.8649 32.8014 73.5186 32.6323C73.1805 32.4552 72.9188 32.2136 72.7336 31.9076C72.5484 31.6017 72.4558 31.2595 72.4558 30.881C72.4558 30.2772 72.6692 29.8061 73.0959 29.4679C73.5227 29.1217 74.1266 28.9446 74.9076 28.9365H76.7917V28.7674C76.7917 28.389 76.6669 28.0951 76.4173 27.8858C76.1677 27.6764 75.8054 27.5717 75.3303 27.5717C74.7184 27.5717 74.0782 27.773 73.4099 28.1756L72.8423 27.0886C73.3496 26.8068 73.8085 26.6055 74.2191 26.4848C74.6378 26.3559 75.125 26.2915 75.6806 26.2915C76.5179 26.2915 77.1661 26.4928 77.6251 26.8954C78.0921 27.298 78.3296 27.8616 78.3377 28.5863L78.3497 32.8135H76.8038ZM75.0887 31.6782C75.5396 31.6782 75.9261 31.5735 76.2482 31.3642C76.5703 31.1468 76.7514 30.881 76.7917 30.567V29.9873H75.1612C74.7425 29.9873 74.4325 30.0517 74.2312 30.1805C74.038 30.3013 73.9414 30.5026 73.9414 30.7844C73.9414 31.0582 74.042 31.2756 74.2433 31.4366C74.4527 31.5977 74.7345 31.6782 75.0887 31.6782ZM83.662 32.4149C83.1467 32.7289 82.6073 32.8859 82.0436 32.8859C81.4881 32.8859 81.0331 32.7249 80.6788 32.4028C80.3246 32.0727 80.1474 31.5896 80.1474 30.9535V27.765H79.2416L79.2295 26.6176H80.1474V24.8422H81.7055V26.6176H83.5533V27.765H81.7055V30.6757C81.7055 30.9736 81.7618 31.187 81.8745 31.3158C81.9873 31.4366 82.1564 31.497 82.3818 31.497C82.6234 31.497 82.9293 31.4084 83.2997 31.2313L83.662 32.4149ZM84.665 26.3519H86.2351V32.8135H84.665V26.3519ZM85.4379 23.574C85.6956 23.574 85.909 23.6626 86.0781 23.8397C86.2471 24.0169 86.3317 24.2423 86.3317 24.5161C86.3317 24.7818 86.2471 25.0032 86.0781 25.1804C85.909 25.3575 85.6956 25.4461 85.4379 25.4461C85.1803 25.4461 84.9669 25.3575 84.7978 25.1804C84.6287 25.0032 84.5442 24.7818 84.5442 24.5161C84.5442 24.2423 84.6287 24.0169 84.7978 23.8397C84.9669 23.6626 85.1803 23.574 85.4379 23.574ZM91.8393 26.2915C92.5801 26.2915 93.1638 26.517 93.5906 26.9679C94.0173 27.4107 94.2307 28.0146 94.2307 28.7795V32.8135H92.6485V29.2385C92.6485 28.7876 92.5197 28.4333 92.262 28.1756C92.0044 27.9099 91.6541 27.7771 91.2113 27.7771C90.6879 27.7851 90.2732 27.9623 89.9673 28.3085C89.6694 28.6547 89.5204 29.0976 89.5204 29.637V32.8135H87.9503V26.3519H89.5204V27.5597C89.9632 26.7303 90.7362 26.3076 91.8393 26.2915ZM101.671 26.3519V32.1975C101.671 32.8095 101.53 33.3409 101.248 33.7918C100.974 34.2507 100.58 34.601 100.064 34.8425C99.5572 35.0921 98.9654 35.2169 98.289 35.2169C97.3067 35.2169 96.3968 34.9311 95.5594 34.3594L96.1875 33.2241C96.7994 33.675 97.4717 33.9005 98.2045 33.9005C98.7842 33.9005 99.2431 33.7515 99.5813 33.4536C99.9276 33.1557 100.101 32.7491 100.101 32.2337V31.4728C99.8833 31.803 99.6015 32.0566 99.2552 32.2337C98.909 32.4028 98.5064 32.4874 98.0475 32.4874C97.4838 32.4874 96.9846 32.3585 96.5498 32.1009C96.115 31.8352 95.7768 31.4688 95.5353 31.0018C95.2937 30.5268 95.173 29.9833 95.173 29.3713C95.173 28.7674 95.2937 28.236 95.5353 27.7771C95.7768 27.3101 96.115 26.9477 96.5498 26.6901C96.9846 26.4324 97.4838 26.3036 98.0475 26.3036C98.4984 26.3036 98.8969 26.3922 99.2431 26.5693C99.5974 26.7464 99.8833 26.996 100.101 27.3181V26.3519H101.671ZM98.3856 31.2555C98.8929 31.2555 99.3035 31.0864 99.6176 30.7482C99.9396 30.402 100.101 29.9551 100.101 29.4076C100.101 28.86 99.9396 28.4172 99.6176 28.079C99.3035 27.7328 98.8929 27.5597 98.3856 27.5597C97.8784 27.5597 97.4637 27.7328 97.1416 28.079C96.8276 28.4252 96.6666 28.8681 96.6585 29.4076C96.6666 29.9551 96.8276 30.402 97.1416 30.7482C97.4637 31.0864 97.8784 31.2555 98.3856 31.2555Z" fill="black"/>
<path d="M228.829 20.8658H235.617V37.7747H232.38V23.7162H228.829V20.8658ZM246.12 20.7209C248.455 20.7209 250.251 21.4617 251.507 22.9432C252.763 24.4248 253.391 26.5504 253.391 29.3203C253.391 32.074 252.763 34.1916 251.507 35.6731C250.251 37.1547 248.455 37.8954 246.12 37.8954C243.785 37.8954 241.99 37.1547 240.734 35.6731C239.477 34.1916 238.849 32.074 238.849 29.3203C238.849 26.5504 239.477 24.4248 240.734 22.9432C241.99 21.4617 243.785 20.7209 246.12 20.7209ZM246.12 23.2814C244.784 23.2814 243.793 23.7726 243.149 24.7549C242.505 25.7211 242.183 27.2429 242.183 29.3203C242.183 31.3815 242.505 32.9033 243.149 33.8856C243.793 34.868 244.784 35.3591 246.12 35.3591C247.457 35.3591 248.447 34.868 249.091 33.8856C249.735 32.9033 250.058 31.3815 250.058 29.3203C250.058 27.2429 249.735 25.7211 249.091 24.7549C248.447 23.7726 247.457 23.2814 246.12 23.2814ZM262.716 20.7209C265.051 20.7209 266.847 21.4617 268.103 22.9432C269.359 24.4248 269.987 26.5504 269.987 29.3203C269.987 32.074 269.359 34.1916 268.103 35.6731C266.847 37.1547 265.051 37.8954 262.716 37.8954C260.381 37.8954 258.586 37.1547 257.33 35.6731C256.074 34.1916 255.445 32.074 255.445 29.3203C255.445 26.5504 256.074 24.4248 257.33 22.9432C258.586 21.4617 260.381 20.7209 262.716 20.7209ZM262.716 23.2814C261.38 23.2814 260.389 23.7726 259.745 24.7549C259.101 25.7211 258.779 27.2429 258.779 29.3203C258.779 31.3815 259.101 32.9033 259.745 33.8856C260.389 34.868 261.38 35.3591 262.716 35.3591C264.053 35.3591 265.043 34.868 265.687 33.8856C266.332 32.9033 266.654 31.3815 266.654 29.3203C266.654 27.2429 266.332 25.7211 265.687 24.7549C265.043 23.7726 264.053 23.2814 262.716 23.2814Z" fill="black"/>
<path d="M233.31 43.3203C234.373 43.3203 235.194 43.5739 235.774 44.0811C236.361 44.5884 236.655 45.305 236.655 46.231C236.655 47.1972 236.361 47.95 235.774 48.4895C235.194 49.0209 234.373 49.2866 233.31 49.2866H231.462V51.7747H229.843V43.3203H233.31ZM233.225 47.8615C233.837 47.8615 234.304 47.7286 234.626 47.4629C234.956 47.1972 235.121 46.8027 235.121 46.2793C235.121 45.764 234.956 45.3775 234.626 45.1198C234.304 44.8622 233.837 44.7333 233.225 44.7333H231.462V47.8615H233.225ZM240.397 45.2648C241.428 45.2648 242.201 45.5587 242.716 46.1464C243.239 46.7342 243.501 47.5595 243.501 48.6224C243.501 48.8317 243.497 48.9887 243.489 49.0934H238.718C238.823 49.5524 239.036 49.9147 239.358 50.1804C239.688 50.4381 240.091 50.5669 240.566 50.5669C240.896 50.5669 241.21 50.5065 241.508 50.3857C241.814 50.2569 242.08 50.0757 242.305 49.8422L243.151 50.7239C242.829 51.0782 242.434 51.3519 241.967 51.5452C241.508 51.7384 240.997 51.835 240.433 51.835C239.773 51.835 239.189 51.6982 238.682 51.4244C238.183 51.1506 237.796 50.7682 237.522 50.277C237.249 49.7778 237.112 49.2061 237.112 48.562C237.112 47.9178 237.249 47.3462 237.522 46.8469C237.804 46.3477 238.195 45.9612 238.694 45.6875C239.193 45.4057 239.761 45.2648 240.397 45.2648ZM242.064 48.0426C242.048 47.5676 241.891 47.1891 241.593 46.9073C241.295 46.6255 240.9 46.4846 240.409 46.4846C239.95 46.4846 239.564 46.6255 239.25 46.9073C238.944 47.1811 238.754 47.5595 238.682 48.0426H242.064ZM246.192 46.5571C246.409 46.1384 246.703 45.8203 247.073 45.6029C247.452 45.3775 247.891 45.2607 248.39 45.2527V46.7745C247.722 46.7342 247.186 46.8912 246.784 47.2455C246.389 47.5917 246.192 48.0628 246.192 48.6586V51.7747H244.622V45.3131H246.192V46.5571ZM253.708 47.3542C253.273 46.8792 252.71 46.6416 252.017 46.6416C251.494 46.6416 251.067 46.8188 250.737 47.173C250.415 47.5273 250.254 47.9863 250.254 48.5499C250.254 49.1296 250.415 49.5966 250.737 49.9509C251.067 50.3052 251.494 50.4823 252.017 50.4823C252.79 50.4823 253.37 50.2287 253.756 49.7214L254.735 50.5307C254.445 50.9493 254.062 51.2714 253.587 51.4969C253.112 51.7223 252.561 51.835 251.933 51.835C251.296 51.835 250.729 51.6982 250.23 51.4244C249.738 51.1506 249.356 50.7682 249.082 50.277C248.808 49.7778 248.672 49.2061 248.672 48.562C248.672 47.9098 248.808 47.3341 249.082 46.8349C249.364 46.3357 249.751 45.9492 250.242 45.6754C250.741 45.4016 251.313 45.2648 251.957 45.2648C252.545 45.2648 253.068 45.3694 253.527 45.5788C253.994 45.7801 254.372 46.0699 254.662 46.4484L253.708 47.3542ZM258.32 45.2648C259.351 45.2648 260.124 45.5587 260.639 46.1464C261.163 46.7342 261.424 47.5595 261.424 48.6224C261.424 48.8317 261.42 48.9887 261.412 49.0934H256.642C256.746 49.5524 256.96 49.9147 257.282 50.1804C257.612 50.4381 258.014 50.5669 258.49 50.5669C258.82 50.5669 259.134 50.5065 259.432 50.3857C259.738 50.2569 260.003 50.0757 260.229 49.8422L261.074 50.7239C260.752 51.0782 260.358 51.3519 259.891 51.5452C259.432 51.7384 258.92 51.835 258.357 51.835C257.696 51.835 257.113 51.6982 256.605 51.4244C256.106 51.1506 255.72 50.7682 255.446 50.277C255.172 49.7778 255.035 49.2061 255.035 48.562C255.035 47.9178 255.172 47.3462 255.446 46.8469C255.728 46.3477 256.118 45.9612 256.618 45.6875C257.117 45.4057 257.684 45.2648 258.32 45.2648ZM259.987 48.0426C259.971 47.5676 259.814 47.1891 259.516 46.9073C259.218 46.6255 258.824 46.4846 258.333 46.4846C257.874 46.4846 257.487 46.6255 257.173 46.9073C256.867 47.1811 256.678 47.5595 256.605 48.0426H259.987ZM266.434 45.2527C267.175 45.2527 267.759 45.4781 268.186 45.929C268.612 46.3719 268.826 46.9758 268.826 47.7407V51.7747H267.243V48.1997C267.243 47.7488 267.115 47.3945 266.857 47.1368C266.599 46.8711 266.249 46.7382 265.806 46.7382C265.283 46.7463 264.868 46.9234 264.562 47.2697C264.264 47.6159 264.115 48.0587 264.115 48.5982V51.7747H262.545V45.3131H264.115V46.5208C264.558 45.6915 265.331 45.2688 266.434 45.2527ZM274.14 51.3761C273.625 51.6901 273.085 51.8471 272.522 51.8471C271.966 51.8471 271.511 51.6861 271.157 51.364C270.803 51.0339 270.625 50.5508 270.625 49.9147V46.7262H269.72L269.707 45.5788H270.625V43.8034H272.183V45.5788H274.031V46.7262H272.183V49.6369C272.183 49.9348 272.24 50.1482 272.353 50.277C272.465 50.3978 272.634 50.4582 272.86 50.4582C273.101 50.4582 273.407 50.3696 273.778 50.1925L274.14 51.3761Z" fill="black"/>
</svg>
