<svg width="326" height="382" viewBox="0 0 326 382" fill="none" xmlns="http://www.w3.org/2000/svg">
<g filter="url(#filter0_d_2602_3604)">
<rect width="308" height="364" rx="16.8" fill="#804BF2" shape-rendering="crispEdges"/>
<path d="M71.4111 115.962V178.64H35V109.246C35 84 57.619 65.315 87.9616 66.7141C118.304 68.1133 146.44 77.3471 146.44 109.246V178.64H106.719V115.962C106.719 95.76 71.4111 94.08 71.4111 115.962Z" fill="white" stroke="black" stroke-width="0.56"/>
<path d="M71.4111 248.038V185.36H35V254.754C35 280 57.619 298.685 87.9616 297.286C118.304 295.887 146.44 286.653 146.44 254.754V185.36H106.719V248.038C106.719 268.24 71.4111 269.92 71.4111 248.038Z" fill="white" stroke="black" stroke-width="0.56"/>
<path d="M197.971 115.962V178.64H161.56V109.246C161.56 84 184.179 65.315 214.522 66.7141C244.864 68.1133 273 77.3471 273 109.246V178.64H233.279V115.962C233.279 95.76 197.971 94.08 197.971 115.962Z" fill="white" stroke="black" stroke-width="0.56"/>
<path d="M197.971 248.038V185.36H161.56V254.754C161.56 280 184.179 298.685 214.522 297.286C244.864 295.887 273 286.653 273 254.754V185.36H233.279V248.038C233.279 268.24 197.971 269.92 197.971 248.038Z" fill="white" stroke="black" stroke-width="0.56"/>
</g>
<defs>
<filter id="filter0_d_2602_3604" x="0" y="0" width="325.991" height="381.991" filterUnits="userSpaceOnUse" color-interpolation-filters="sRGB">
<feFlood flood-opacity="0" result="BackgroundImageFix"/>
<feColorMatrix in="SourceAlpha" type="matrix" values="0 0 0 0 0 0 0 0 0 0 0 0 0 0 0 0 0 0 127 0" result="hardAlpha"/>
<feOffset dx="10.7944" dy="10.7944"/>
<feGaussianBlur stdDeviation="3.59813"/>
<feComposite in2="hardAlpha" operator="out"/>
<feColorMatrix type="matrix" values="0 0 0 0 0.117647 0 0 0 0 0.117647 0 0 0 0 0.117647 0 0 0 0.15 0"/>
<feBlend mode="normal" in2="BackgroundImageFix" result="effect1_dropShadow_2602_3604"/>
<feBlend mode="normal" in="SourceGraphic" in2="effect1_dropShadow_2602_3604" result="shape"/>
</filter>
</defs>
</svg>
