<svg width="133" height="105" viewBox="0 0 133 105" fill="none" xmlns="http://www.w3.org/2000/svg">
<circle cx="53" cy="52.5" r="52.5" fill="#804BF2"/>
<path d="M46.5622 38.75H53.4372C53.4372 37.7951 53.1034 36.9839 52.4357 36.3163C51.7681 35.6486 50.9561 35.314 49.9997 35.3125C49.0433 35.311 48.232 35.6456 47.5659 36.3163C46.8998 36.9869 46.5652 37.7982 46.5622 38.75ZM61.458 50.3802V38.75H63.7497C65.0101 38.75 66.0895 39.1992 66.9878 40.0975C67.8861 40.9958 68.3345 42.0744 68.333 43.3333V50.8958C67.2254 50.5903 66.0895 50.3802 64.9253 50.2656C63.7611 50.151 62.6054 50.1892 61.458 50.3802ZM36.2497 63.9583C34.9893 63.9583 33.9106 63.5099 33.0138 62.6131C32.117 61.7163 31.6679 60.6369 31.6663 59.375V43.3333C31.6663 42.0729 32.1155 40.9943 33.0138 40.0975C33.9122 39.2007 34.9908 38.7515 36.2497 38.75H38.5413V63.9583H36.2497ZM41.9788 63.9583V38.75H43.1247C43.1247 36.8403 43.7931 35.217 45.1299 33.8802C46.4667 32.5434 48.09 31.875 49.9997 31.875C51.9094 31.875 53.5327 32.5434 54.8695 33.8802C56.2063 35.217 56.8747 36.8403 56.8747 38.75H58.0205V51.2969C55.3087 52.3281 53.0843 53.9804 51.3472 56.2537C49.6101 58.5271 48.4734 61.0953 47.9372 63.9583H41.9788ZM62.7184 68.7708H64.7809V68.1979C64.7809 67.7778 64.8955 67.405 65.1247 67.0796C65.3538 66.7542 65.6212 66.4394 65.9268 66.1354C66.3851 65.7153 66.7861 65.2569 67.1299 64.7604C67.4736 64.2639 67.6455 63.691 67.6455 63.0417C67.6455 62.0104 67.2636 61.1411 66.4997 60.4337C65.7358 59.7264 64.8191 59.3735 63.7497 59.375C62.8712 59.375 62.079 59.6332 61.3732 60.1496C60.6674 60.666 60.1609 61.3626 59.8538 62.2396L61.6872 63.0417C61.8018 62.5451 62.05 62.1349 62.432 61.811C62.8139 61.4872 63.2531 61.3244 63.7497 61.3229C64.2462 61.3214 64.6763 61.4841 65.0399 61.811C65.4035 62.138 65.5845 62.5482 65.583 63.0417C65.583 63.4618 65.4684 63.8155 65.2393 64.1027C65.0101 64.3899 64.7427 64.6856 64.4372 64.9896C64.208 65.2188 63.9697 65.4479 63.7222 65.6771C63.4747 65.9062 63.2547 66.1736 63.0622 66.4792C62.9476 66.7083 62.862 66.9474 62.8055 67.1965C62.749 67.4455 62.7199 67.7029 62.7184 67.9687V68.7708ZM63.7497 73.125C64.1698 73.125 64.5235 72.9822 64.8107 72.6965C65.0979 72.4108 65.2408 72.0571 65.2393 71.6354C65.2377 71.2137 65.0949 70.8608 64.8107 70.5767C64.5265 70.2925 64.1729 70.1489 63.7497 70.1458C63.3265 70.1428 62.9736 70.2864 62.6909 70.5767C62.4083 70.8669 62.2647 71.2199 62.2601 71.6354C62.2555 72.051 62.3991 72.4046 62.6909 72.6965C62.9827 72.9883 63.3356 73.1311 63.7497 73.125ZM63.7497 77.7083C60.5795 77.7083 57.8777 76.5908 55.644 74.3556C53.4104 72.1205 52.2929 69.4186 52.2913 66.25C52.2898 63.0814 53.4074 60.3795 55.644 58.1444C57.8807 55.9092 60.5826 54.7917 63.7497 54.7917C66.9168 54.7917 69.6194 55.9092 71.8576 58.1444C74.0958 60.3795 75.2126 63.0814 75.208 66.25C75.2034 69.4186 74.0859 72.1212 71.8553 74.3579C69.6247 76.5946 66.9229 77.7114 63.7497 77.7083ZM27.083 73.125V68.5417H47.9372C48.09 69.3056 48.2809 70.0694 48.5101 70.8333C48.7393 71.5972 49.0066 72.3611 49.3122 73.125H27.083Z" fill="white"/>
<rect x="90" y="32.5" width="40" height="40" rx="20" fill="#F2AE30"/>
<rect x="90" y="32.5" width="40" height="40" rx="20" stroke="white" stroke-width="5"/>
<path d="M103.484 59.38C102.324 59.38 101.331 59.1933 100.504 58.82C99.6776 58.4467 99.0043 57.9267 98.4843 57.26C97.9643 56.5933 97.5843 55.8333 97.3443 54.98C97.1043 54.1267 96.9843 53.22 96.9843 52.26V51.12C96.9843 49.8 97.2176 48.6 97.6843 47.52C98.151 46.4267 98.8643 45.56 99.8243 44.92C100.784 44.28 102.004 43.96 103.484 43.96C104.964 43.96 106.178 44.28 107.124 44.92C108.084 45.56 108.798 46.4267 109.264 47.52C109.731 48.6 109.964 49.8 109.964 51.12V52.26C109.964 53.22 109.838 54.1267 109.584 54.98C109.344 55.8333 108.964 56.5933 108.444 57.26C107.938 57.9267 107.271 58.4467 106.444 58.82C105.631 59.1933 104.644 59.38 103.484 59.38ZM103.484 56.36C104.564 56.36 105.364 55.9867 105.884 55.24C106.418 54.48 106.684 53.3067 106.684 51.72C106.684 50.04 106.411 48.8333 105.864 48.1C105.331 47.3533 104.538 46.98 103.484 46.98C102.418 46.98 101.611 47.3467 101.064 48.08C100.531 48.8133 100.264 50.0133 100.264 51.68C100.264 53.2933 100.524 54.48 101.044 55.24C101.578 55.9867 102.391 56.36 103.484 56.36ZM111.378 56.2V52.78L116.918 43.98L119.458 45.64L114.718 53.18L114.998 53.6H119.038V48.48H122.058V53.6H123.738V56.2H122.058V59H119.038V56.2H111.378Z" fill="#1E1E1E"/>
</svg>
