<svg width="133" height="105" viewBox="0 0 133 105" fill="none" xmlns="http://www.w3.org/2000/svg">
<circle cx="53" cy="52.5" r="52.5" fill="#804BF2"/>
<path d="M46.125 49.4686L48.5012 54.2188H43.7488L46.125 49.4686ZM75.3438 37.0312V71.4062C75.344 71.6994 75.2692 71.9877 75.1266 72.2438C74.984 72.4999 74.7782 72.7152 74.5289 72.8694C74.2796 73.0235 73.995 73.1113 73.7022 73.1245C73.4093 73.1377 73.118 73.0757 72.8559 72.9445L66.75 69.8895L60.6441 72.9445C60.4054 73.064 60.142 73.1262 59.875 73.1262C59.608 73.1262 59.3446 73.064 59.1059 72.9445L53 69.8895L46.8941 72.9445C46.6554 73.064 46.392 73.1262 46.125 73.1262C45.858 73.1262 45.5946 73.064 45.3559 72.9445L39.25 69.8895L33.1441 72.9445C32.882 73.0757 32.5907 73.1377 32.2979 73.1245C32.005 73.1113 31.7204 73.0235 31.4711 72.8694C31.2218 72.7152 31.016 72.4999 30.8734 72.2438C30.7308 71.9877 30.656 71.6994 30.6563 71.4062V37.0312C30.6563 36.1196 31.0184 35.2452 31.6631 34.6006C32.3077 33.9559 33.1821 33.5938 34.0938 33.5938H71.9062C72.8179 33.5938 73.6923 33.9559 74.3369 34.6006C74.9816 35.2452 75.3438 36.1196 75.3438 37.0312ZM54.5383 58.6059L47.6633 44.8559C47.5207 44.5698 47.3013 44.3292 47.0295 44.1611C46.7578 43.9929 46.4446 43.9038 46.125 43.9038C45.8054 43.9038 45.4922 43.9929 45.2205 44.1611C44.9487 44.3292 44.7293 44.5698 44.5867 44.8559L37.7117 58.6059C37.6107 58.8079 37.5505 59.0278 37.5345 59.2531C37.5185 59.4784 37.547 59.7046 37.6184 59.9189C37.6898 60.1331 37.8028 60.3312 37.9507 60.5018C38.0987 60.6725 38.2788 60.8123 38.4809 60.9133C38.6829 61.0143 38.9028 61.0745 39.1281 61.0905C39.3534 61.1065 39.5796 61.078 39.7939 61.0066C40.0081 60.9352 40.2062 60.8222 40.3769 60.6743C40.5475 60.5263 40.6873 60.3462 40.7883 60.1441L42.0301 57.6562H50.2199L51.4617 60.1441C51.5627 60.3462 51.7025 60.5263 51.8731 60.6743C52.0438 60.8222 52.2419 60.9352 52.4561 61.0066C52.6704 61.078 52.8966 61.1065 53.1219 61.0905C53.3472 61.0745 53.5671 61.0143 53.7691 60.9133C53.9712 60.8123 54.1513 60.6725 54.2993 60.5018C54.4472 60.3312 54.5602 60.1331 54.6316 59.9189C54.703 59.7046 54.7315 59.4784 54.7155 59.2531C54.6995 59.0278 54.6393 58.8079 54.5383 58.6059ZM70.1875 52.5C70.1875 52.0442 70.0064 51.607 69.6841 51.2847C69.3618 50.9623 68.9246 50.7812 68.4688 50.7812H65.0312V47.3438C65.0312 46.8879 64.8502 46.4507 64.5278 46.1284C64.2055 45.8061 63.7683 45.625 63.3125 45.625C62.8567 45.625 62.4195 45.8061 62.0972 46.1284C61.7748 46.4507 61.5938 46.8879 61.5938 47.3438V50.7812H58.1562C57.7004 50.7812 57.2632 50.9623 56.9409 51.2847C56.6186 51.607 56.4375 52.0442 56.4375 52.5C56.4375 52.9558 56.6186 53.393 56.9409 53.7153C57.2632 54.0377 57.7004 54.2188 58.1562 54.2188H61.5938V57.6562C61.5938 58.1121 61.7748 58.5493 62.0972 58.8716C62.4195 59.1939 62.8567 59.375 63.3125 59.375C63.7683 59.375 64.2055 59.1939 64.5278 58.8716C64.8502 58.5493 65.0312 58.1121 65.0312 57.6562V54.2188H68.4688C68.9246 54.2188 69.3618 54.0377 69.6841 53.7153C70.0064 53.393 70.1875 52.9558 70.1875 52.5Z" fill="white"/>
<rect x="90" y="32.5" width="40" height="40" rx="20" fill="#F2AE30"/>
<rect x="90" y="32.5" width="40" height="40" rx="20" stroke="white" stroke-width="5"/>
<path d="M103.885 59.38C102.725 59.38 101.731 59.1933 100.905 58.82C100.078 58.4467 99.4047 57.9267 98.8847 57.26C98.3647 56.5933 97.9847 55.8333 97.7447 54.98C97.5047 54.1267 97.3847 53.22 97.3847 52.26V51.12C97.3847 49.8 97.618 48.6 98.0847 47.52C98.5514 46.4267 99.2647 45.56 100.225 44.92C101.185 44.28 102.405 43.96 103.885 43.96C105.365 43.96 106.578 44.28 107.525 44.92C108.485 45.56 109.198 46.4267 109.665 47.52C110.131 48.6 110.365 49.8 110.365 51.12V52.26C110.365 53.22 110.238 54.1267 109.985 54.98C109.745 55.8333 109.365 56.5933 108.845 57.26C108.338 57.9267 107.671 58.4467 106.845 58.82C106.031 59.1933 105.045 59.38 103.885 59.38ZM103.885 56.36C104.965 56.36 105.765 55.9867 106.285 55.24C106.818 54.48 107.085 53.3067 107.085 51.72C107.085 50.04 106.811 48.8333 106.265 48.1C105.731 47.3533 104.938 46.98 103.885 46.98C102.818 46.98 102.011 47.3467 101.465 48.08C100.931 48.8133 100.665 50.0133 100.665 51.68C100.665 53.2933 100.925 54.48 101.445 55.24C101.978 55.9867 102.791 56.36 103.885 56.36ZM117.319 59.38C116.172 59.38 115.185 59.1733 114.359 58.76C113.532 58.3333 112.899 57.76 112.459 57.04C112.019 56.32 111.799 55.5067 111.799 54.6H114.959C114.959 55.2133 115.165 55.7133 115.579 56.1C115.992 56.4733 116.572 56.66 117.319 56.66C118.052 56.66 118.625 56.46 119.039 56.06C119.452 55.66 119.659 55.14 119.659 54.5C119.659 53.86 119.452 53.3333 119.039 52.92C118.625 52.5067 118.052 52.3 117.319 52.3C116.919 52.3 116.565 52.36 116.259 52.48C115.965 52.6 115.712 52.7467 115.499 52.92L114.019 50.42L118.439 47.54L118.259 47.2H112.399V44.4H122.239V47.44L118.179 50.02C119.619 50.1667 120.752 50.64 121.579 51.44C122.419 52.2267 122.839 53.2333 122.839 54.46V54.7C122.839 55.5933 122.612 56.3933 122.159 57.1C121.719 57.8067 121.085 58.3667 120.259 58.78C119.432 59.18 118.452 59.38 117.319 59.38Z" fill="#1E1E1E"/>
</svg>
