<svg width="133" height="105" viewBox="0 0 133 105" fill="none" xmlns="http://www.w3.org/2000/svg">
<circle cx="53" cy="52.5" r="52.5" fill="#804BF2"/>
<path d="M54.5833 45.75V33.25H71.25V45.75H54.5833ZM33.75 54.0833V33.25H50.4167V54.0833H33.75ZM54.5833 70.75V49.9167H71.25V70.75H54.5833ZM33.75 70.75V58.25H50.4167V70.75H33.75Z" fill="white"/>
<rect x="90" y="32.5" width="40" height="40" rx="20" fill="#F2AE30"/>
<rect x="90" y="32.5" width="40" height="40" rx="20" stroke="white" stroke-width="5"/>
<path d="M103.885 59.38C102.725 59.38 101.731 59.1933 100.905 58.82C100.078 58.4467 99.4047 57.9267 98.8847 57.26C98.3647 56.5933 97.9847 55.8333 97.7447 54.98C97.5047 54.1267 97.3847 53.22 97.3847 52.26V51.12C97.3847 49.8 97.618 48.6 98.0847 47.52C98.5514 46.4267 99.2647 45.56 100.225 44.92C101.185 44.28 102.405 43.96 103.885 43.96C105.365 43.96 106.578 44.28 107.525 44.92C108.485 45.56 109.198 46.4267 109.665 47.52C110.131 48.6 110.365 49.8 110.365 51.12V52.26C110.365 53.22 110.238 54.1267 109.985 54.98C109.745 55.8333 109.365 56.5933 108.845 57.26C108.338 57.9267 107.671 58.4467 106.845 58.82C106.031 59.1933 105.045 59.38 103.885 59.38ZM103.885 56.36C104.965 56.36 105.765 55.9867 106.285 55.24C106.818 54.48 107.085 53.3067 107.085 51.72C107.085 50.04 106.811 48.8333 106.265 48.1C105.731 47.3533 104.938 46.98 103.885 46.98C102.818 46.98 102.011 47.3467 101.465 48.08C100.931 48.8133 100.665 50.0133 100.665 51.68C100.665 53.2933 100.925 54.48 101.445 55.24C101.978 55.9867 102.791 56.36 103.885 56.36ZM112.319 59V56C112.319 55.0667 112.552 54.3 113.019 53.7C113.499 53.1 114.299 52.56 115.419 52.08L117.779 51.06C118.365 50.8067 118.805 50.4933 119.099 50.12C119.392 49.7467 119.539 49.2733 119.539 48.7C119.539 48.1133 119.352 47.6333 118.979 47.26C118.619 46.8867 118.099 46.7 117.419 46.7C116.725 46.7 116.199 46.8933 115.839 47.28C115.479 47.6667 115.299 48.1867 115.299 48.84H112.119C112.119 47.92 112.319 47.0933 112.719 46.36C113.119 45.6267 113.712 45.0467 114.499 44.62C115.285 44.18 116.259 43.96 117.419 43.96C118.565 43.96 119.532 44.1667 120.319 44.58C121.105 44.9933 121.699 45.5533 122.099 46.26C122.512 46.9533 122.719 47.7267 122.719 48.58V48.82C122.719 49.94 122.412 50.8667 121.799 51.6C121.185 52.3333 120.239 52.9733 118.959 53.52L116.619 54.54C116.219 54.7133 115.932 54.9 115.759 55.1C115.599 55.2867 115.519 55.5333 115.519 55.84V56.18H122.739V59H112.319Z" fill="#1E1E1E"/>
</svg>
