<svg width="88" height="105" viewBox="0 0 88 105" fill="none" xmlns="http://www.w3.org/2000/svg">
<g id="Group">
<path id="Vector" d="M48.3456 101.607L48.2881 101.617L47.9478 101.785L47.852 101.804L47.7849 101.785L47.4447 101.612C47.3936 101.599 47.3552 101.609 47.3297 101.641L47.3105 101.689L47.229 103.74L47.253 103.836L47.3009 103.898L47.7993 104.253L47.8712 104.272L47.9287 104.253L48.4271 103.898L48.4846 103.821L48.5037 103.74L48.4223 101.694C48.4095 101.642 48.3839 101.614 48.3456 101.607ZM49.6107 101.066L49.5436 101.075L48.6619 101.521L48.6139 101.569L48.5996 101.622L48.6858 103.682L48.7098 103.74L48.7481 103.778L49.7113 104.219C49.772 104.235 49.8184 104.222 49.8503 104.181L49.8695 104.114L49.7065 101.171C49.6906 101.111 49.6586 101.075 49.6107 101.066ZM46.1843 101.075C46.1632 101.063 46.138 101.058 46.1139 101.064C46.0898 101.069 46.0687 101.084 46.055 101.104L46.0262 101.171L45.8633 104.114C45.8665 104.171 45.8936 104.209 45.9447 104.229L46.0166 104.219L46.9798 103.773L47.0278 103.735L47.0421 103.682L47.1284 101.622L47.114 101.564L47.0661 101.516L46.1843 101.075Z" fill="#F2AE30"/>
<path id="Vector_2" d="M26.6944 24.9434L27.1497 25.3411L67.8155 66.0022C68.3485 66.5346 68.7484 67.1852 68.9828 67.9012C69.2173 68.6172 69.2796 69.3783 69.1648 70.1229C69.0499 70.8675 68.7612 71.5745 68.3219 72.1865C67.8827 72.7986 67.3053 73.2985 66.6366 73.6456L66.0807 73.8852L16.3147 92.2246C6.96052 95.6749 -2.14928 86.8814 0.692442 77.5416L0.932047 76.8419L19.2666 27.0759C19.509 26.4166 19.8934 25.8188 20.3925 25.3245C20.8916 24.8303 21.4932 24.4519 22.1548 24.2159C22.8163 23.98 23.5217 23.8924 24.2209 23.9593C24.9201 24.0262 25.596 24.246 26.2008 24.6032L26.6944 24.9434ZM69.9719 45.7603C74.3375 45.9903 80.3229 46.9104 85.5271 50.0349C86.5821 50.6603 87.3572 51.6666 87.6927 52.8463C88.0281 54.026 87.8985 55.2895 87.3304 56.3765C86.7623 57.4636 85.7991 58.2914 84.639 58.6896C83.4789 59.0877 82.2103 59.0259 81.0944 58.5169L80.596 58.2533C77.3278 56.2886 73.1491 55.5218 69.4688 55.3301C67.9522 55.2463 66.432 55.2527 64.9163 55.3493L63.402 55.4979C62.1519 55.6592 60.8885 55.3215 59.8857 54.5579C58.8828 53.7944 58.2212 52.6665 58.0441 51.4185C57.867 50.1706 58.1887 48.9031 58.9395 47.8906C59.6903 46.8782 60.8098 46.2024 62.0554 46.0095C64.6799 45.6709 67.331 45.5858 69.9719 45.7555M79.6759 32.4047C80.8969 32.4073 82.0709 32.8758 82.9582 33.7147C83.8454 34.5535 84.379 35.6994 84.4499 36.9184C84.5209 38.1373 84.1238 39.3373 83.3399 40.2735C82.556 41.2096 81.4443 41.8112 80.2318 41.9554L79.6759 41.9889H76.2831C75.0621 41.9864 73.8881 41.5178 73.0009 40.679C72.1137 39.8401 71.5801 38.6942 71.5092 37.4753C71.4382 36.2563 71.8352 35.0563 72.6192 34.1201C73.4031 33.184 74.5148 32.5824 75.7272 32.4382L76.2831 32.4047H79.6759ZM64.4275 28.7292C65.2525 29.5543 65.7482 30.6522 65.8214 31.8168C65.8947 32.9814 65.5404 34.1327 64.8252 35.0547L64.4275 35.5052L59.343 40.5896C58.4807 41.4491 57.3235 41.9481 56.1065 41.9852C54.8896 42.0224 53.7041 41.5949 52.7909 40.7897C51.8777 39.9845 51.3052 38.8618 51.1898 37.6498C51.0743 36.4378 51.4245 35.2272 52.1693 34.264L52.567 33.8136L57.6466 28.7339C58.0917 28.2884 58.6202 27.9349 59.202 27.6938C59.7837 27.4526 60.4073 27.3285 61.037 27.3285C61.6668 27.3285 62.2904 27.4526 62.8721 27.6938C63.4539 27.9349 63.9824 28.2836 64.4275 28.7292ZM52.0303 3.49871C54.1771 9.94889 53.027 17.0125 51.6852 21.9483C50.8821 25.0266 49.7745 28.0173 48.3787 30.876C47.8112 32.0135 46.8151 32.879 45.6095 33.2821C44.4039 33.6851 43.0876 33.5928 41.9501 33.0253C40.8126 32.4578 39.9471 31.4617 39.544 30.2561C39.141 29.0505 39.2333 27.7342 39.8008 26.5967C40.9158 24.3007 41.7988 21.8991 42.4365 19.4277C43.5243 15.4406 44.0706 11.1134 43.232 7.56721L42.9397 6.53211C42.7308 5.93281 42.6431 5.29799 42.6816 4.66451C42.7201 4.03103 42.884 3.4115 43.1639 2.8419C43.4438 2.27229 43.834 1.76395 44.312 1.34639C44.7899 0.928831 45.346 0.610365 45.948 0.409481C46.5501 0.208596 47.186 0.129295 47.8189 0.176181C48.4518 0.223067 49.0691 0.395206 49.635 0.682605C50.2008 0.970005 50.7039 1.36694 51.1151 1.85037C51.5263 2.33379 51.8374 2.89408 52.0303 3.49871ZM77.9795 15.1819C78.8779 16.0805 79.3826 17.2992 79.3826 18.5699C79.3826 19.8406 78.8779 21.0593 77.9795 21.9579L74.5915 25.3459C74.1495 25.8036 73.6207 26.1687 73.036 26.4198C72.4514 26.671 71.8225 26.8032 71.1863 26.8087C70.55 26.8142 69.9189 26.693 69.33 26.452C68.7411 26.2111 68.206 25.8553 67.7561 25.4053C67.3061 24.9554 66.9503 24.4203 66.7094 23.8314C66.4684 23.2425 66.3472 22.6114 66.3527 21.9752C66.3582 21.3389 66.4904 20.71 66.7416 20.1254C66.9927 19.5407 67.3578 19.0119 67.8155 18.5699L71.2035 15.1819C72.1021 14.2835 73.3208 13.7788 74.5915 13.7788C75.8622 13.7788 77.0809 14.2835 77.9795 15.1819Z" fill="#F2AE30"/>
</g>
</svg>
