<svg width="71" height="71" viewBox="0 0 71 71" fill="none" xmlns="http://www.w3.org/2000/svg">
<g id="material-symbols:text-ad-rounded">
<path id="Vector" d="M11.8607 58.5578C10.2565 58.5578 8.88373 57.9871 7.74234 56.8457C6.60095 55.7043 6.02929 54.3306 6.02734 52.7244V17.7244C6.02734 16.1203 6.59901 14.7475 7.74234 13.6061C8.88568 12.4647 10.2585 11.8931 11.8607 11.8911H58.5273C60.1315 11.8911 61.5052 12.4628 62.6486 13.6061C63.7919 14.7494 64.3626 16.1222 64.3607 17.7244V52.7244C64.3607 54.3286 63.79 55.7024 62.6486 56.8457C61.5072 57.989 60.1334 58.5597 58.5273 58.5578H11.8607ZM17.694 49.8078H52.694C53.5204 49.8078 54.2136 49.5278 54.7736 48.9678C55.3336 48.4078 55.6126 47.7156 55.6107 46.8911C55.6087 46.0667 55.3287 45.3744 54.7707 44.8144C54.2126 44.2544 53.5204 43.9744 52.694 43.9744H17.694C16.8676 43.9744 16.1754 44.2544 15.6173 44.8144C15.0593 45.3744 14.7793 46.0667 14.7773 46.8911C14.7754 47.7156 15.0554 48.4087 15.6173 48.9707C16.1793 49.5326 16.8715 49.8117 17.694 49.8078ZM17.694 38.1411H52.694C53.5204 38.1411 54.2136 37.8611 54.7736 37.3011C55.3336 36.7411 55.6126 36.0489 55.6107 35.2244C55.6087 34.4 55.3287 33.7078 54.7707 33.1478C54.2126 32.5878 53.5204 32.3078 52.694 32.3078H17.694C16.8676 32.3078 16.1754 32.5878 15.6173 33.1478C15.0593 33.7078 14.7793 34.4 14.7773 35.2244C14.7754 36.0489 15.0554 36.7421 15.6173 37.304C16.1793 37.866 16.8715 38.145 17.694 38.1411ZM17.694 26.4744H41.0273C41.8537 26.4744 42.5469 26.1944 43.1069 25.6344C43.6669 25.0744 43.9459 24.3822 43.944 23.5578C43.9421 22.7333 43.6621 22.0411 43.104 21.4811C42.5459 20.9211 41.8537 20.6411 41.0273 20.6411H17.694C16.8676 20.6411 16.1754 20.9211 15.6173 21.4811C15.0593 22.0411 14.7793 22.7333 14.7773 23.5578C14.7754 24.3822 15.0554 25.0754 15.6173 25.6374C16.1793 26.1993 16.8715 26.4783 17.694 26.4744Z" fill="#F2AE30"/>
</g>
</svg>
