<svg width="25" height="24" viewBox="0 0 25 24" fill="none" xmlns="http://www.w3.org/2000/svg">
<g id="solar:star-bold-duotone">
<path id="Vector" d="M18.9832 16.7671C17.6164 17.0953 16.1895 17.0794 14.8303 16.7208C13.4712 16.3622 12.2221 15.6721 11.1951 14.7124C10.168 13.7526 9.39506 12.5531 8.94535 11.2213C8.49564 9.88951 8.38325 8.46696 8.61824 7.08105C8.58303 7.11615 8.54526 7.14858 8.50524 7.17805C8.22523 7.39105 7.87524 7.47005 7.17524 7.62805L6.54024 7.77205C4.08024 8.32905 2.85024 8.60706 2.55723 9.54806C2.26523 10.4881 3.10324 11.4691 4.78024 13.4301L5.21424 13.9371C5.69024 14.4941 5.92923 14.7731 6.03623 15.1171C6.14323 15.4621 6.10723 15.8341 6.03523 16.5771L5.96923 17.2541C5.71623 19.8711 5.58924 21.1791 6.35524 21.7601C7.12123 22.3411 8.27323 21.8121 10.5752 20.7511L11.1722 20.4771C11.8262 20.1751 12.1532 20.0251 12.5002 20.0251C12.8472 20.0251 13.1742 20.1751 13.8292 20.4771L14.4242 20.7511C16.7272 21.8111 17.8792 22.3411 18.6442 21.7611C19.4112 21.1791 19.2842 19.8711 19.0312 17.2541L18.9832 16.7671Z" fill="#804BF2"/>
<path id="Vector_2" opacity="0.5" d="M9.6527 5.408L9.3247 5.996C8.9647 6.642 8.7847 6.965 8.5047 7.178C8.5447 7.148 8.58237 7.11567 8.6177 7.081C8.38265 8.46701 8.49504 9.88967 8.9448 11.2216C9.39455 12.5535 10.1676 13.7531 11.1948 14.7128C12.222 15.6726 13.4712 16.3627 14.8305 16.7212C16.1898 17.0797 17.6168 17.0954 18.9837 16.767L18.9637 16.577C18.8927 15.834 18.8567 15.462 18.9637 15.117C19.0707 14.773 19.3087 14.494 19.7857 13.937L20.2197 13.43C21.8967 11.47 22.7347 10.489 22.4417 9.548C22.1497 8.607 20.9197 8.328 18.4597 7.772L17.8237 7.628C17.1247 7.47 16.7747 7.391 16.4937 7.178C16.2137 6.965 16.0337 6.642 15.6737 5.996L15.3467 5.408C14.0797 3.136 13.4467 2 12.4997 2C11.5527 2 10.9197 3.136 9.6527 5.408Z" fill="#804BF2"/>
</g>
</svg>
