<svg width="355" height="565" viewBox="0 0 355 565" fill="none" xmlns="http://www.w3.org/2000/svg">
<rect width="355" height="565" fill="white"/>
<g filter="url(#filter0_d_1536_3060)">
<rect x="71.5" y="64.5" width="210.158" height="239.105" rx="5.07895" stroke="#804BF2" stroke-width="3" shape-rendering="crispEdges"/>
<path d="M160.974 105.255C159.011 97.6563 163.605 89.7512 171.442 89.3377C182.177 88.7712 192.965 90.645 202.972 94.8968C217.367 101.013 229.343 111.709 237.04 125.325C244.737 138.941 247.727 154.716 245.545 170.204C243.363 185.692 236.131 200.028 224.971 210.987C213.812 221.946 199.347 228.917 183.822 230.818C168.297 232.718 152.578 229.443 139.104 221.5C125.63 213.557 115.154 201.39 109.299 186.886C105.23 176.804 103.552 165.984 104.313 155.261C104.868 147.432 112.855 142.983 120.417 145.083V145.083C127.98 147.183 132.149 155.12 132.639 162.953C132.922 167.488 133.931 171.978 135.654 176.248C139.167 184.951 145.453 192.251 153.537 197.017C161.622 201.783 171.053 203.748 180.368 202.607C189.683 201.467 198.362 197.284 205.058 190.709C211.753 184.133 216.092 175.532 217.402 166.239C218.711 156.946 216.917 147.481 212.299 139.311C207.68 131.142 200.495 124.725 191.858 121.055C187.62 119.254 183.148 118.164 178.62 117.798C170.797 117.167 162.936 112.854 160.974 105.255V105.255Z" fill="#804BF2"/>
<path d="M189.399 215.328C191.362 222.927 186.768 230.832 178.931 231.246C168.196 231.812 157.408 229.938 147.401 225.687C133.006 219.57 121.031 208.875 113.333 195.259C105.636 181.643 102.646 165.868 104.828 150.379C107.01 134.891 114.242 120.556 125.402 109.597C136.562 98.6374 151.026 91.6668 166.551 89.7659C182.076 87.865 197.795 91.14 211.269 99.0831C224.743 107.026 235.22 119.193 241.074 133.697C245.143 143.78 246.821 154.6 246.06 165.322C245.505 173.151 237.518 177.601 229.956 175.501V175.501C222.394 173.401 218.224 165.463 217.734 157.63C217.451 153.096 216.442 148.605 214.719 144.335C211.206 135.633 204.92 128.332 196.836 123.567C188.751 118.801 179.32 116.836 170.005 117.976C160.69 119.117 152.011 123.299 145.315 129.875C138.62 136.45 134.281 145.051 132.971 154.344C131.662 163.637 133.456 173.103 138.074 181.272C142.693 189.442 149.878 195.859 158.515 199.529C162.753 201.329 167.225 202.419 171.753 202.785C179.576 203.417 187.437 207.729 189.399 215.328V215.328Z" fill="#804BF2" fill-opacity="0.4"/>
<path d="M146.599 168V153.888H143.167V150.48H150.511V168H146.599ZM161.809 168.456C160.417 168.456 159.225 168.232 158.233 167.784C157.241 167.336 156.433 166.712 155.809 165.912C155.185 165.112 154.729 164.2 154.441 163.176C154.153 162.152 154.009 161.064 154.009 159.912V158.544C154.009 156.96 154.289 155.52 154.849 154.224C155.409 152.912 156.265 151.872 157.417 151.104C158.569 150.336 160.033 149.952 161.809 149.952C163.585 149.952 165.041 150.336 166.177 151.104C167.329 151.872 168.185 152.912 168.745 154.224C169.305 155.52 169.585 156.96 169.585 158.544V159.912C169.585 161.064 169.433 162.152 169.129 163.176C168.841 164.2 168.385 165.112 167.761 165.912C167.153 166.712 166.353 167.336 165.361 167.784C164.385 168.232 163.201 168.456 161.809 168.456ZM161.809 164.832C163.105 164.832 164.065 164.384 164.689 163.488C165.329 162.576 165.649 161.168 165.649 159.264C165.649 157.248 165.321 155.8 164.665 154.92C164.025 154.024 163.073 153.576 161.809 153.576C160.529 153.576 159.561 154.016 158.905 154.896C158.265 155.776 157.945 157.216 157.945 159.216C157.945 161.152 158.257 162.576 158.881 163.488C159.521 164.384 160.497 164.832 161.809 164.832ZM180.113 168.456C178.721 168.456 177.529 168.232 176.537 167.784C175.545 167.336 174.737 166.712 174.113 165.912C173.489 165.112 173.033 164.2 172.745 163.176C172.457 162.152 172.313 161.064 172.313 159.912V158.544C172.313 156.96 172.593 155.52 173.153 154.224C173.713 152.912 174.569 151.872 175.721 151.104C176.873 150.336 178.337 149.952 180.113 149.952C181.889 149.952 183.345 150.336 184.481 151.104C185.633 151.872 186.489 152.912 187.049 154.224C187.609 155.52 187.889 156.96 187.889 158.544V159.912C187.889 161.064 187.737 162.152 187.433 163.176C187.145 164.2 186.689 165.112 186.065 165.912C185.457 166.712 184.657 167.336 183.665 167.784C182.689 168.232 181.505 168.456 180.113 168.456ZM180.113 164.832C181.409 164.832 182.369 164.384 182.993 163.488C183.633 162.576 183.953 161.168 183.953 159.264C183.953 157.248 183.625 155.8 182.969 154.92C182.329 154.024 181.377 153.576 180.113 153.576C178.833 153.576 177.865 154.016 177.209 154.896C176.569 155.776 176.249 157.216 176.249 159.216C176.249 161.152 176.561 162.576 177.185 163.488C177.825 164.384 178.801 164.832 180.113 164.832ZM193.978 160.104C193.018 160.104 192.226 159.896 191.602 159.48C190.978 159.048 190.506 158.48 190.186 157.776C189.882 157.072 189.73 156.28 189.73 155.4V154.776C189.73 153.416 190.09 152.296 190.81 151.416C191.53 150.536 192.586 150.096 193.978 150.096C195.37 150.096 196.426 150.536 197.146 151.416C197.866 152.296 198.226 153.416 198.226 154.776V155.4C198.226 156.28 198.066 157.072 197.746 157.776C197.442 158.48 196.978 159.048 196.354 159.48C195.73 159.896 194.938 160.104 193.978 160.104ZM195.178 168L201.562 150.48H204.778L198.418 168H195.178ZM193.978 157.536C194.474 157.536 194.834 157.36 195.058 157.008C195.298 156.64 195.418 156.008 195.418 155.112C195.418 154.168 195.298 153.52 195.058 153.168C194.818 152.816 194.458 152.64 193.978 152.64C193.498 152.64 193.138 152.816 192.898 153.168C192.658 153.52 192.538 154.16 192.538 155.088C192.538 156 192.65 156.64 192.874 157.008C193.114 157.36 193.482 157.536 193.978 157.536ZM205.906 168.408C204.946 168.408 204.146 168.2 203.506 167.784C202.882 167.368 202.418 166.808 202.114 166.104C201.81 165.384 201.658 164.592 201.658 163.728V163.104C201.658 161.728 202.018 160.6 202.738 159.72C203.458 158.84 204.514 158.4 205.906 158.4C207.282 158.4 208.33 158.84 209.05 159.72C209.77 160.6 210.13 161.728 210.13 163.104V163.728C210.13 164.592 209.978 165.384 209.674 166.104C209.37 166.808 208.898 167.368 208.258 167.784C207.634 168.2 206.85 168.408 205.906 168.408ZM205.906 165.864C206.386 165.864 206.746 165.68 206.986 165.312C207.226 164.944 207.346 164.32 207.346 163.44C207.346 162.496 207.218 161.848 206.962 161.496C206.722 161.144 206.37 160.968 205.906 160.968C205.426 160.968 205.058 161.144 204.802 161.496C204.562 161.832 204.442 162.472 204.442 163.416C204.442 164.312 204.562 164.944 204.802 165.312C205.042 165.68 205.41 165.864 205.906 165.864Z" fill="#1E1E1E"/>
<path d="M122.866 254.52C122.002 253.992 121.114 253.584 120.202 253.296C119.306 253.008 118.514 252.864 117.826 252.864C117.058 252.864 116.45 253.008 116.002 253.296C115.554 253.584 115.33 253.984 115.33 254.496C115.33 254.96 115.482 255.352 115.786 255.672C116.106 255.976 116.498 256.232 116.962 256.44C117.442 256.632 118.09 256.848 118.906 257.088C120.042 257.424 120.97 257.76 121.69 258.096C122.426 258.432 123.05 258.928 123.562 259.584C124.074 260.24 124.33 261.104 124.33 262.176C124.33 263.2 124.05 264.096 123.49 264.864C122.946 265.616 122.186 266.192 121.21 266.592C120.25 266.992 119.146 267.192 117.898 267.192C116.586 267.192 115.306 266.952 114.058 266.472C112.81 265.976 111.722 265.32 110.794 264.504L112.138 261.768C112.986 262.552 113.938 263.168 114.994 263.616C116.05 264.064 117.034 264.288 117.946 264.288C118.842 264.288 119.546 264.12 120.058 263.784C120.57 263.432 120.826 262.96 120.826 262.368C120.826 261.888 120.666 261.496 120.346 261.192C120.042 260.872 119.65 260.616 119.17 260.424C118.69 260.232 118.034 260.016 117.202 259.776C116.066 259.44 115.138 259.112 114.418 258.792C113.698 258.472 113.082 257.992 112.57 257.352C112.058 256.696 111.802 255.84 111.802 254.784C111.802 253.808 112.058 252.96 112.57 252.24C113.098 251.504 113.834 250.936 114.778 250.536C115.738 250.136 116.842 249.936 118.09 249.936C119.178 249.936 120.25 250.096 121.306 250.416C122.378 250.736 123.33 251.168 124.162 251.712L122.866 254.52ZM134.841 267V265.44C134.393 266 133.817 266.424 133.113 266.712C132.409 267 131.601 267.144 130.689 267.144C129.793 267.144 129.001 266.976 128.312 266.64C127.641 266.288 127.121 265.808 126.753 265.2C126.385 264.592 126.201 263.912 126.201 263.16C126.201 261.96 126.625 261.024 127.473 260.352C128.321 259.664 129.521 259.312 131.073 259.296H134.817V258.96C134.817 258.208 134.569 257.624 134.073 257.208C133.577 256.792 132.857 256.584 131.913 256.584C130.697 256.584 129.425 256.984 128.097 257.784L126.969 255.624C127.977 255.064 128.889 254.664 129.705 254.424C130.537 254.168 131.505 254.04 132.609 254.04C134.273 254.04 135.561 254.44 136.473 255.24C137.401 256.04 137.873 257.16 137.889 258.6L137.913 267H134.841ZM131.433 264.744C132.329 264.744 133.097 264.536 133.737 264.12C134.377 263.688 134.737 263.16 134.817 262.536V261.384H131.577C130.745 261.384 130.129 261.512 129.729 261.768C129.345 262.008 129.153 262.408 129.153 262.968C129.153 263.512 129.353 263.944 129.753 264.264C130.169 264.584 130.729 264.744 131.433 264.744ZM148.925 266.208C147.901 266.832 146.829 267.144 145.709 267.144C144.605 267.144 143.701 266.824 142.997 266.184C142.293 265.528 141.941 264.568 141.941 263.304V256.968H140.141L140.117 254.688H141.941V251.16H145.037V254.688H148.709V256.968H145.037V262.752C145.037 263.344 145.149 263.768 145.373 264.024C145.597 264.264 145.933 264.384 146.381 264.384C146.861 264.384 147.469 264.208 148.205 263.856L148.925 266.208ZM151.374 254.16H154.494V267H151.374V254.16ZM152.91 248.64C153.422 248.64 153.846 248.816 154.182 249.168C154.518 249.52 154.686 249.968 154.686 250.512C154.686 251.04 154.518 251.48 154.182 251.832C153.846 252.184 153.422 252.36 152.91 252.36C152.398 252.36 151.974 252.184 151.638 251.832C151.302 251.48 151.134 251.04 151.134 250.512C151.134 249.968 151.302 249.52 151.638 249.168C151.974 248.816 152.398 248.64 152.91 248.64ZM165.966 257.64C165.342 257.272 164.694 256.984 164.022 256.776C163.366 256.568 162.758 256.464 162.198 256.464C161.67 256.464 161.246 256.56 160.926 256.752C160.622 256.928 160.47 257.208 160.47 257.592C160.47 257.992 160.662 258.304 161.046 258.528C161.446 258.736 162.07 258.96 162.918 259.2C163.814 259.472 164.55 259.744 165.126 260.016C165.702 260.272 166.198 260.664 166.614 261.192C167.046 261.704 167.262 262.384 167.262 263.232C167.262 264.48 166.782 265.44 165.822 266.112C164.862 266.784 163.654 267.12 162.198 267.12C161.206 267.12 160.238 266.968 159.294 266.664C158.35 266.344 157.55 265.896 156.894 265.32L157.974 263.136C158.55 263.632 159.238 264.024 160.038 264.312C160.838 264.584 161.598 264.72 162.318 264.72C162.894 264.72 163.35 264.624 163.686 264.432C164.038 264.224 164.214 263.92 164.214 263.52C164.214 263.072 164.014 262.736 163.614 262.512C163.214 262.288 162.566 262.04 161.67 261.768C160.806 261.512 160.102 261.264 159.558 261.024C159.014 260.768 158.542 260.392 158.142 259.896C157.742 259.384 157.542 258.72 157.542 257.904C157.542 256.64 157.998 255.68 158.91 255.024C159.838 254.352 160.998 254.016 162.39 254.016C163.238 254.016 164.07 254.136 164.886 254.376C165.718 254.616 166.454 254.952 167.094 255.384L165.966 257.64ZM175.288 251.736C174.808 251.736 174.408 251.872 174.088 252.144C173.784 252.416 173.632 252.824 173.632 253.368V254.688H176.848V256.968H173.632V267H170.512V256.968H168.832V254.688H170.512V253.464C170.512 252.52 170.72 251.72 171.136 251.064C171.552 250.392 172.104 249.888 172.792 249.552C173.496 249.216 174.256 249.048 175.072 249.048C175.872 249.048 176.656 249.232 177.424 249.6L176.872 252.12C176.232 251.864 175.704 251.736 175.288 251.736ZM185.583 267V265.44C185.135 266 184.559 266.424 183.855 266.712C183.151 267 182.343 267.144 181.431 267.144C180.535 267.144 179.743 266.976 179.055 266.64C178.383 266.288 177.863 265.808 177.495 265.2C177.127 264.592 176.943 263.912 176.943 263.16C176.943 261.96 177.367 261.024 178.215 260.352C179.063 259.664 180.263 259.312 181.815 259.296H185.559V258.96C185.559 258.208 185.311 257.624 184.815 257.208C184.319 256.792 183.599 256.584 182.655 256.584C181.439 256.584 180.167 256.984 178.839 257.784L177.711 255.624C178.719 255.064 179.631 254.664 180.447 254.424C181.279 254.168 182.247 254.04 183.351 254.04C185.015 254.04 186.303 254.44 187.215 255.24C188.143 256.04 188.615 257.16 188.631 258.6L188.655 267H185.583ZM182.175 264.744C183.071 264.744 183.839 264.536 184.479 264.12C185.119 263.688 185.479 263.16 185.559 262.536V261.384H182.319C181.487 261.384 180.871 261.512 180.471 261.768C180.087 262.008 179.895 262.408 179.895 262.968C179.895 263.512 180.095 263.944 180.495 264.264C180.911 264.584 181.471 264.744 182.175 264.744ZM200.987 258.216C200.123 257.272 199.003 256.8 197.627 256.8C196.587 256.8 195.739 257.152 195.083 257.856C194.443 258.56 194.123 259.472 194.123 260.592C194.123 261.744 194.443 262.672 195.083 263.376C195.739 264.08 196.587 264.432 197.627 264.432C199.163 264.432 200.315 263.928 201.083 262.92L203.027 264.528C202.451 265.36 201.691 266 200.747 266.448C199.803 266.896 198.707 267.12 197.459 267.12C196.195 267.12 195.067 266.848 194.075 266.304C193.099 265.76 192.339 265 191.795 264.024C191.251 263.032 190.979 261.896 190.979 260.616C190.979 259.32 191.251 258.176 191.795 257.184C192.355 256.192 193.123 255.424 194.099 254.88C195.091 254.336 196.227 254.064 197.507 254.064C198.675 254.064 199.715 254.272 200.627 254.688C201.555 255.088 202.307 255.664 202.883 256.416L200.987 258.216ZM213.214 266.208C212.19 266.832 211.118 267.144 209.998 267.144C208.894 267.144 207.99 266.824 207.286 266.184C206.582 265.528 206.23 264.568 206.23 263.304V256.968H204.43L204.406 254.688H206.23V251.16H209.326V254.688H212.998V256.968H209.326V262.752C209.326 263.344 209.438 263.768 209.662 264.024C209.886 264.264 210.222 264.384 210.67 264.384C211.15 264.384 211.758 264.208 212.494 263.856L213.214 266.208ZM215.663 254.16H218.783V267H215.663V254.16ZM217.199 248.64C217.711 248.64 218.135 248.816 218.471 249.168C218.807 249.52 218.975 249.968 218.975 250.512C218.975 251.04 218.807 251.48 218.471 251.832C218.135 252.184 217.711 252.36 217.199 252.36C216.687 252.36 216.263 252.184 215.927 251.832C215.591 251.48 215.423 251.04 215.423 250.512C215.423 249.968 215.591 249.52 215.927 249.168C216.263 248.816 216.687 248.64 217.199 248.64ZM228.263 254.064C229.591 254.064 230.759 254.336 231.767 254.88C232.791 255.424 233.583 256.192 234.143 257.184C234.719 258.16 235.007 259.288 235.007 260.568C235.007 261.864 234.719 263.008 234.143 264C233.583 264.992 232.791 265.76 231.767 266.304C230.759 266.848 229.591 267.12 228.263 267.12C226.919 267.12 225.735 266.848 224.711 266.304C223.687 265.76 222.887 264.992 222.311 264C221.751 263.008 221.471 261.864 221.471 260.568C221.471 259.288 221.751 258.16 222.311 257.184C222.887 256.192 223.687 255.424 224.711 254.88C225.735 254.336 226.919 254.064 228.263 254.064ZM228.263 256.728C227.175 256.728 226.295 257.088 225.623 257.808C224.951 258.528 224.615 259.464 224.615 260.616C224.615 261.768 224.951 262.704 225.623 263.424C226.295 264.144 227.175 264.504 228.263 264.504C229.319 264.504 230.183 264.144 230.855 263.424C231.527 262.704 231.863 261.768 231.863 260.616C231.863 259.464 231.527 258.528 230.855 257.808C230.183 257.088 229.319 256.728 228.263 256.728ZM245.445 254.04C246.917 254.04 248.077 254.488 248.925 255.384C249.773 256.264 250.197 257.464 250.197 258.984V267H247.053V259.896C247.053 259 246.797 258.296 246.285 257.784C245.773 257.256 245.077 256.992 244.197 256.992C243.157 257.008 242.333 257.36 241.725 258.048C241.133 258.736 240.837 259.616 240.837 260.688V267H237.717V254.16H240.837V256.56C241.717 254.912 243.253 254.072 245.445 254.04Z" fill="#1E1E1E"/>
</g>
<g filter="url(#filter1_d_1536_3060)">
<rect x="71.8163" y="326.922" width="209.525" height="174.367" rx="6.15002" stroke="#804BF2" stroke-width="3.63265" shape-rendering="crispEdges"/>
<path d="M99.9127 375.745V356.948H95.3414V352.409H105.123V375.745H99.9127ZM120.172 376.352C118.317 376.352 116.73 376.054 115.408 375.457C114.087 374.861 113.011 374.03 112.18 372.964C111.349 371.898 110.741 370.684 110.358 369.32C109.974 367.956 109.782 366.507 109.782 364.972V363.15C109.782 361.04 110.155 359.122 110.901 357.396C111.647 355.648 112.787 354.263 114.322 353.24C115.856 352.217 117.806 351.706 120.172 351.706C122.537 351.706 124.476 352.217 125.99 353.24C127.524 354.263 128.664 355.648 129.41 357.396C130.156 359.122 130.529 361.04 130.529 363.15V364.972C130.529 366.507 130.327 367.956 129.922 369.32C129.538 370.684 128.931 371.898 128.099 372.964C127.29 374.03 126.224 374.861 124.903 375.457C123.603 376.054 122.026 376.352 120.172 376.352ZM120.172 371.525C121.898 371.525 123.176 370.929 124.008 369.735C124.86 368.52 125.286 366.645 125.286 364.109C125.286 361.424 124.849 359.495 123.976 358.323C123.123 357.129 121.855 356.533 120.172 356.533C118.467 356.533 117.177 357.119 116.303 358.291C115.451 359.463 115.025 361.381 115.025 364.045C115.025 366.624 115.44 368.52 116.272 369.735C117.124 370.929 118.424 371.525 120.172 371.525ZM144.553 376.352C142.699 376.352 141.111 376.054 139.79 375.457C138.468 374.861 137.392 374.03 136.561 372.964C135.73 371.898 135.123 370.684 134.739 369.32C134.355 367.956 134.164 366.507 134.164 364.972V363.15C134.164 361.04 134.536 359.122 135.282 357.396C136.028 355.648 137.168 354.263 138.703 353.24C140.237 352.217 142.187 351.706 144.553 351.706C146.918 351.706 148.858 352.217 150.371 353.24C151.905 354.263 153.046 355.648 153.791 357.396C154.537 359.122 154.91 361.04 154.91 363.15V364.972C154.91 366.507 154.708 367.956 154.303 369.32C153.919 370.684 153.312 371.898 152.481 372.964C151.671 374.03 150.605 374.861 149.284 375.457C147.984 376.054 146.407 376.352 144.553 376.352ZM144.553 371.525C146.279 371.525 147.558 370.929 148.389 369.735C149.241 368.52 149.668 366.645 149.668 364.109C149.668 361.424 149.231 359.495 148.357 358.323C147.505 357.129 146.237 356.533 144.553 356.533C142.848 356.533 141.559 357.119 140.685 358.291C139.832 359.463 139.406 361.381 139.406 364.045C139.406 366.624 139.822 368.52 140.653 369.735C141.505 370.929 142.805 371.525 144.553 371.525ZM168.934 376.352C167.08 376.352 165.492 376.054 164.171 375.457C162.85 374.861 161.774 374.03 160.942 372.964C160.111 371.898 159.504 370.684 159.12 369.32C158.737 367.956 158.545 366.507 158.545 364.972V363.15C158.545 361.04 158.918 359.122 159.664 357.396C160.41 355.648 161.55 354.263 163.084 353.24C164.619 352.217 166.569 351.706 168.934 351.706C171.3 351.706 173.239 352.217 174.752 353.24C176.287 354.263 177.427 355.648 178.173 357.396C178.919 359.122 179.292 361.04 179.292 363.15V364.972C179.292 366.507 179.089 367.956 178.684 369.32C178.301 370.684 177.693 371.898 176.862 372.964C176.052 374.03 174.987 374.861 173.665 375.457C172.365 376.054 170.788 376.352 168.934 376.352ZM168.934 371.525C170.66 371.525 171.939 370.929 172.77 369.735C173.623 368.52 174.049 366.645 174.049 364.109C174.049 361.424 173.612 359.495 172.738 358.323C171.886 357.129 170.618 356.533 168.934 356.533C167.229 356.533 165.94 357.119 165.066 358.291C164.214 359.463 163.787 361.381 163.787 364.045C163.787 366.624 164.203 368.52 165.034 369.735C165.887 370.929 167.187 371.525 168.934 371.525ZM188.361 372.772V366.826H182.702V362.67H188.361V356.693H192.9V362.67H198.59V366.826H192.9V372.772H188.361Z" fill="#1E1E1E"/>
<path d="M94.7839 397.115H109.66V400.522H104.218V414.915H100.2V400.522H94.7839V397.115ZM115.92 401.107C118.123 401.107 119.793 401.743 120.929 403.014C122.082 404.286 122.658 406.057 122.658 408.329C122.658 408.736 122.65 409.05 122.633 409.27H112.817C113.038 410.134 113.462 410.813 114.089 411.304C114.716 411.779 115.47 412.016 116.352 412.016C116.996 412.016 117.615 411.898 118.208 411.66C118.802 411.406 119.336 411.041 119.81 410.567L121.87 412.652C121.175 413.432 120.327 414.034 119.327 414.457C118.344 414.864 117.242 415.068 116.021 415.068C114.58 415.068 113.317 414.779 112.232 414.203C111.164 413.627 110.334 412.813 109.74 411.762C109.164 410.711 108.876 409.499 108.876 408.126C108.876 406.736 109.173 405.515 109.766 404.464C110.359 403.396 111.19 402.574 112.258 401.997C113.326 401.404 114.546 401.107 115.92 401.107ZM118.971 406.956C118.937 406.057 118.649 405.337 118.106 404.794C117.564 404.252 116.844 403.981 115.945 403.981C115.097 403.981 114.385 404.252 113.809 404.794C113.25 405.32 112.894 406.04 112.741 406.956H118.971ZM133.839 405.252C133.093 404.828 132.355 404.506 131.626 404.286C130.897 404.049 130.245 403.93 129.668 403.93C129.194 403.93 128.812 404.015 128.524 404.184C128.236 404.354 128.092 404.608 128.092 404.947C128.092 405.32 128.287 405.608 128.677 405.812C129.067 406.015 129.702 406.244 130.584 406.498C131.55 406.786 132.347 407.075 132.974 407.363C133.601 407.634 134.144 408.049 134.601 408.609C135.059 409.151 135.288 409.872 135.288 410.77C135.288 412.126 134.763 413.186 133.711 413.949C132.677 414.695 131.347 415.068 129.719 415.068C128.6 415.068 127.524 414.907 126.49 414.584C125.456 414.245 124.557 413.771 123.794 413.16L125.066 410.516C125.761 411.058 126.532 411.482 127.38 411.787C128.244 412.076 129.058 412.22 129.821 412.22C130.346 412.22 130.762 412.135 131.067 411.965C131.389 411.779 131.55 411.508 131.55 411.152C131.55 410.762 131.347 410.457 130.94 410.236C130.55 410.016 129.914 409.778 129.033 409.524C128.1 409.253 127.32 408.982 126.693 408.71C126.083 408.439 125.557 408.032 125.117 407.49C124.676 406.93 124.455 406.21 124.455 405.328C124.455 403.972 124.964 402.921 125.981 402.175C126.998 401.429 128.287 401.056 129.846 401.056C130.779 401.056 131.711 401.192 132.643 401.463C133.576 401.718 134.423 402.091 135.186 402.582L133.839 405.252ZM146.376 414.152C145.867 414.457 145.299 414.695 144.672 414.864C144.062 415.017 143.443 415.093 142.816 415.093C141.544 415.093 140.51 414.729 139.713 414C138.916 413.271 138.518 412.228 138.518 410.872V404.54H136.611V401.845H138.518V398.081H142.409V401.845H146.121V404.566H142.409V410.211C142.409 411.262 142.824 411.787 143.655 411.787C144.231 411.787 144.867 411.618 145.562 411.279L146.376 414.152Z" fill="#1E1E1E"/>
<path d="M84.5312 486.153C144.47 428.636 188.667 409.262 274.64 420.16" stroke="#1E1E1E" stroke-width="2.42177"/>
<rect x="232.863" y="406.84" width="25.4286" height="25.4286" rx="12.7143" fill="white"/>
<rect x="232.863" y="406.84" width="25.4286" height="25.4286" rx="12.7143" stroke="#804BF2" stroke-width="1.21088"/>
<circle cx="245.578" cy="419.555" r="7.87075" fill="#804BF2"/>
</g>
<defs>
<filter id="filter0_d_1536_3060" x="66" y="63" width="221.158" height="250.105" filterUnits="userSpaceOnUse" color-interpolation-filters="sRGB">
<feFlood flood-opacity="0" result="BackgroundImageFix"/>
<feColorMatrix in="SourceAlpha" type="matrix" values="0 0 0 0 0 0 0 0 0 0 0 0 0 0 0 0 0 0 127 0" result="hardAlpha"/>
<feOffset dy="4"/>
<feGaussianBlur stdDeviation="2"/>
<feComposite in2="hardAlpha" operator="out"/>
<feColorMatrix type="matrix" values="0 0 0 0 0 0 0 0 0 0 0 0 0 0 0 0 0 0 0.25 0"/>
<feBlend mode="normal" in2="BackgroundImageFix" result="effect1_dropShadow_1536_3060"/>
<feBlend mode="normal" in="SourceGraphic" in2="effect1_dropShadow_1536_3060" result="shape"/>
</filter>
<filter id="filter1_d_1536_3060" x="66" y="325.105" width="221.158" height="186" filterUnits="userSpaceOnUse" color-interpolation-filters="sRGB">
<feFlood flood-opacity="0" result="BackgroundImageFix"/>
<feColorMatrix in="SourceAlpha" type="matrix" values="0 0 0 0 0 0 0 0 0 0 0 0 0 0 0 0 0 0 127 0" result="hardAlpha"/>
<feOffset dy="4"/>
<feGaussianBlur stdDeviation="2"/>
<feComposite in2="hardAlpha" operator="out"/>
<feColorMatrix type="matrix" values="0 0 0 0 0 0 0 0 0 0 0 0 0 0 0 0 0 0 0.25 0"/>
<feBlend mode="normal" in2="BackgroundImageFix" result="effect1_dropShadow_1536_3060"/>
<feBlend mode="normal" in="SourceGraphic" in2="effect1_dropShadow_1536_3060" result="shape"/>
</filter>
</defs>
</svg>
