<svg width="101" height="100" viewBox="0 0 101 100" fill="none" xmlns="http://www.w3.org/2000/svg">
<g id="uiw:loading">
<path id="Vector" fill-rule="evenodd" clip-rule="evenodd" d="M55.5 80C58.1522 80 60.6957 81.0536 62.5711 82.9289C64.4464 84.8043 65.5 87.3478 65.5 90C65.5 92.6522 64.4464 95.1957 62.5711 97.0711C60.6957 98.9464 58.1522 100 55.5 100C52.8478 100 50.3043 98.9464 48.4289 97.0711C46.5536 95.1957 45.5 92.6522 45.5 90C45.5 87.3478 46.5536 84.8043 48.4289 82.9289C50.3043 81.0536 52.8478 80 55.5 80ZM24.205 65C27.5202 65 30.6996 66.317 33.0438 68.6612C35.388 71.0054 36.705 74.1848 36.705 77.5C36.705 80.8152 35.388 83.9946 33.0438 86.3388C30.6996 88.683 27.5202 90 24.205 90C20.8898 90 17.7104 88.683 15.3662 86.3388C13.022 83.9946 11.705 80.8152 11.705 77.5C11.705 74.1848 13.022 71.0054 15.3662 68.6612C17.7104 66.317 20.8898 65 24.205 65ZM82.095 67.5C84.7472 67.5 87.2907 68.5536 89.1661 70.4289C91.0414 72.3043 92.095 74.8478 92.095 77.5C92.095 80.1522 91.0414 82.6957 89.1661 84.5711C87.2907 86.4464 84.7472 87.5 82.095 87.5C79.4428 87.5 76.8993 86.4464 75.0239 84.5711C73.1486 82.6957 72.095 80.1522 72.095 77.5C72.095 74.8478 73.1486 72.3043 75.0239 70.4289C76.8993 68.5536 79.4428 67.5 82.095 67.5ZM93 46.595C94.9891 46.595 96.8968 47.3852 98.3033 48.7917C99.7098 50.1982 100.5 52.1059 100.5 54.095C100.5 56.0841 99.7098 57.9918 98.3033 59.3983C96.8968 60.8048 94.9891 61.595 93 61.595C91.0109 61.595 89.1032 60.8048 87.6967 59.3983C86.2902 57.9918 85.5 56.0841 85.5 54.095C85.5 52.1059 86.2902 50.1982 87.6967 48.7917C89.1032 47.3852 91.0109 46.595 93 46.595ZM13 30C16.3152 30 19.4946 31.317 21.8388 33.6612C24.183 36.0054 25.5 39.1848 25.5 42.5C25.5 45.8152 24.183 48.9946 21.8388 51.3388C19.4946 53.683 16.3152 55 13 55C9.68479 55 6.50537 53.683 4.16117 51.3388C1.81696 48.9946 0.5 45.8152 0.5 42.5C0.5 39.1848 1.81696 36.0054 4.16117 33.6612C6.50537 31.317 9.68479 30 13 30ZM89.43 26.035C90.7561 26.035 92.0279 26.5618 92.9655 27.4995C93.9032 28.4371 94.43 29.7089 94.43 31.035C94.43 32.3611 93.9032 33.6329 92.9655 34.5705C92.0279 35.5082 90.7561 36.035 89.43 36.035C88.1039 36.035 86.8322 35.5082 85.8945 34.5705C84.9568 33.6329 84.43 32.3611 84.43 31.035C84.43 29.7089 84.9568 28.4371 85.8945 27.4995C86.8322 26.5618 88.1039 26.035 89.43 26.035ZM40.5 0C44.4782 0 48.2936 1.58035 51.1066 4.3934C53.9197 7.20644 55.5 11.0218 55.5 15C55.5 18.9782 53.9197 22.7936 51.1066 25.6066C48.2936 28.4196 44.4782 30 40.5 30C36.5218 30 32.7064 28.4196 29.8934 25.6066C27.0804 22.7936 25.5 18.9782 25.5 15C25.5 11.0218 27.0804 7.20644 29.8934 4.3934C32.7064 1.58035 36.5218 0 40.5 0ZM78 15C78.663 15 79.2989 15.2634 79.7678 15.7322C80.2366 16.2011 80.5 16.837 80.5 17.5C80.5 18.163 80.2366 18.7989 79.7678 19.2678C79.2989 19.7366 78.663 20 78 20C77.337 20 76.7011 19.7366 76.2322 19.2678C75.7634 18.7989 75.5 18.163 75.5 17.5C75.5 16.837 75.7634 16.2011 76.2322 15.7322C76.7011 15.2634 77.337 15 78 15Z" fill="#9747FF"/>
</g>
</svg>
