<svg width="35" height="35" viewBox="0 0 35 35" fill="none" xmlns="http://www.w3.org/2000/svg">
<g id="mdi:cloud-question">
<path id="Vector" d="M31.8798 18.2292C30.8266 16.9858 29.3307 16.2012 27.709 16.0417C27.709 13.1979 26.7173 10.7917 24.734 8.80833C22.7507 6.825 20.3444 5.83333 17.5007 5.83333C15.1965 5.83333 13.1257 6.51875 11.3027 7.91875C9.47982 9.31875 8.2694 11.1125 7.6569 13.3437C5.83398 13.7521 4.31732 14.7 3.16523 16.1875C2.01315 17.675 1.45898 19.3667 1.45898 21.2625C1.45898 23.4646 2.24648 25.3458 3.8069 26.8771C5.3819 28.4375 7.29232 29.1667 9.47982 29.1667H26.9798C28.8027 29.1667 30.3486 28.525 31.6319 27.2562C32.9007 25.9729 33.5423 24.4271 33.5423 22.6042C33.5423 20.9271 32.9882 19.4687 31.8798 18.2292ZM18.959 24.7917H16.0423V21.875H18.959V24.7917ZM21.584 17.2375C21.1465 17.8062 20.6069 18.2292 19.9361 18.5937C19.5569 18.8271 19.309 19.0604 19.1777 19.3375C19.0248 19.6763 18.9501 20.0451 18.959 20.4167H16.0423C16.0423 19.6146 16.2027 19.075 16.4798 18.6958C16.7715 18.3167 17.2819 17.8646 18.0402 17.3687C18.4194 17.1354 18.7257 16.8583 18.959 16.5083C19.1777 16.1729 19.2944 15.7646 19.2944 15.3125C19.2944 14.8458 19.1632 14.4958 18.9007 14.2333C18.6382 13.9417 18.2298 13.8104 17.7923 13.8104C17.3986 13.8104 17.0777 13.9271 16.7715 14.1458C16.5527 14.3646 16.4069 14.7 16.4069 15.1521H13.534C13.4611 14.0583 13.8548 13.125 14.6715 12.5271C15.459 11.9583 16.4944 11.6667 17.7923 11.6667C19.1632 11.6667 20.2569 12.0021 21.0444 12.6583C21.8319 13.3146 22.2257 14.2187 22.2257 15.3125C22.2257 16.0417 22.0069 16.6396 21.584 17.2375Z" fill="#804BF2" fill-opacity="0.4"/>
</g>
</svg>
