<svg width="105" height="105" viewBox="0 0 105 105" fill="none" xmlns="http://www.w3.org/2000/svg">
<g id="material-symbols:package-rounded">
<path id="Vector" d="M21.875 91.875C19.4688 91.875 17.4096 91.019 15.6975 89.3069C13.9854 87.5948 13.1279 85.5342 13.125 83.125V21.875C13.125 19.4688 13.9825 17.4096 15.6975 15.6975C17.4125 13.9854 19.4717 13.1279 21.875 13.125H83.125C85.5312 13.125 87.5919 13.9825 89.3069 15.6975C91.0219 17.4125 91.8779 19.4717 91.875 21.875V83.125C91.875 85.5312 91.019 87.5919 89.3069 89.3069C87.5948 91.0219 85.5342 91.8779 83.125 91.875H21.875ZM41.3438 53.7031L52.5 48.125L63.6562 53.7031C65.1146 54.4323 66.5365 54.3769 67.9219 53.5369C69.3073 52.6969 70 51.4398 70 49.7656V21.875H35V49.7656C35 51.4427 35.6927 52.7012 37.0781 53.5412C38.4635 54.3812 39.8854 54.4352 41.3438 53.7031ZM35 74.375H48.125C49.3646 74.375 50.4044 73.955 51.2444 73.115C52.0844 72.275 52.5029 71.2367 52.5 70C52.4971 68.7633 52.0771 67.725 51.24 66.885C50.4029 66.045 49.3646 65.625 48.125 65.625H35C33.7604 65.625 32.7221 66.045 31.885 66.885C31.0479 67.725 30.6279 68.7633 30.625 70C30.6221 71.2367 31.0421 72.2765 31.885 73.1194C32.7279 73.9623 33.7663 74.3808 35 74.375Z" fill="#804BF2"/>
</g>
</svg>
