<svg width="35" height="35" viewBox="0 0 35 35" fill="none" xmlns="http://www.w3.org/2000/svg">
<g id="fluent:person-12-filled">
<path id="Vector" d="M17.4987 2.9165C15.9516 2.9165 14.4679 3.53109 13.3739 4.62505C12.2799 5.71901 11.6654 7.20274 11.6654 8.74984C11.6654 10.2969 12.2799 11.7807 13.3739 12.8746C14.4679 13.9686 15.9516 14.5832 17.4987 14.5832C19.0458 14.5832 20.5295 13.9686 21.6235 12.8746C22.7174 11.7807 23.332 10.2969 23.332 8.74984C23.332 7.20274 22.7174 5.71901 21.6235 4.62505C20.5295 3.53109 19.0458 2.9165 17.4987 2.9165ZM24.7904 17.4998H10.207C9.04671 17.4998 7.93391 17.9608 7.11344 18.7812C6.29297 19.6017 5.83203 20.7145 5.83203 21.8748C5.83203 25.1298 7.17078 27.7373 9.36703 29.5019C11.5283 31.2373 14.4274 32.0832 17.4987 32.0832C20.5699 32.0832 23.4691 31.2373 25.6304 29.5019C27.8237 27.7373 29.1654 25.1298 29.1654 21.8748C29.1654 20.7145 28.7044 19.6017 27.884 18.7812C27.0635 17.9608 25.9507 17.4998 24.7904 17.4998Z" fill="#804BF2" fill-opacity="0.4"/>
</g>
</svg>
