<svg width="1514" height="987" viewBox="0 0 1514 987" fill="none" xmlns="http://www.w3.org/2000/svg">
<g clip-path="url(#clip0_2597_3561)">
<rect width="1513.11" height="987" fill="white"/>
<path d="M183.555 871C183.555 989.465 87.5198 1085.5 -30.9453 1085.5C-149.41 1085.5 -245.445 989.465 -245.445 871C-245.445 752.535 -149.41 656.5 -30.9453 656.5C87.5198 656.5 183.555 752.535 183.555 871ZM-172.139 871C-172.139 948.979 -108.925 1012.19 -30.9453 1012.19C47.034 1012.19 110.249 948.979 110.249 871C110.249 793.021 47.034 729.806 -30.9453 729.806C-108.925 729.806 -172.139 793.021 -172.139 871Z" fill="#804BF2" fill-opacity="0.2"/>
<path d="M1759.55 92C1759.55 210.465 1663.52 306.5 1545.05 306.5C1426.59 306.5 1330.55 210.465 1330.55 92C1330.55 -26.4651 1426.59 -122.5 1545.05 -122.5C1663.52 -122.5 1759.55 -26.4651 1759.55 92ZM1403.86 92C1403.86 169.979 1467.08 233.194 1545.05 233.194C1623.03 233.194 1686.25 169.979 1686.25 92C1686.25 14.0207 1623.03 -49.194 1545.05 -49.194C1467.08 -49.194 1403.86 14.0207 1403.86 92Z" fill="#804BF2" fill-opacity="0.2"/>
</g>
<defs>
<clipPath id="clip0_2597_3561">
<rect width="1513.11" height="987" fill="white"/>
</clipPath>
</defs>
</svg>
