<svg width="218" height="216" viewBox="0 0 218 216" fill="none" xmlns="http://www.w3.org/2000/svg">
<g id="uim:padlock">
<path id="Vector" opacity="0.5" d="M81.62 63C81.62 47.7 93.3741 36 108.745 36C124.116 36 135.87 47.7 135.87 63V81H153.953V63C153.953 37.8 134.062 18 108.745 18C83.4283 18 63.5366 37.8 63.5366 63V81H81.62V63ZM122.307 130.5C122.307 123.3 115.978 117 108.745 117C101.512 117 95.1825 123.3 95.1825 130.5C95.1825 134.1 96.9908 137.7 99.7033 140.4V153C99.7033 158.4 103.32 162 108.745 162C114.17 162 117.787 158.4 117.787 153V140.4C120.499 137.7 122.307 134.1 122.307 130.5Z" fill="#F2AE30"/>
<path id="Vector_2" d="M153.953 81H63.5366C48.1658 81 36.4116 92.7 36.4116 108V171C36.4116 186.3 48.1658 198 63.5366 198H153.953C169.324 198 181.078 186.3 181.078 171V108C181.078 92.7 169.324 81 153.953 81ZM117.787 140.4V153C117.787 158.4 114.17 162 108.745 162C103.32 162 99.7033 158.4 99.7033 153V140.4C96.9908 137.7 95.1824 134.1 95.1824 130.5C95.1824 123.3 101.512 117 108.745 117C115.978 117 122.307 123.3 122.307 130.5C122.307 134.1 120.499 137.7 117.787 140.4Z" fill="#F2AE30"/>
</g>
</svg>
